<svg width="14" height="15" viewBox="0 0 14 15" fill="none" xmlns="http://www.w3.org/2000/svg">
<path d="M1.00024 11.41V12.41C1.00024 13.5146 1.89567 14.41 3.00024 14.41H11.0002C12.1048 14.41 13.0002 13.5146 13.0002 12.41V11.41" stroke="#0F0A54" stroke-width="1.2" stroke-linecap="round" stroke-linejoin="round"/>
<path d="M9.61215 12.41H4.38834C4.17489 12.41 4.00024 12.185 4.00024 11.91C4.00024 11.635 4.17489 11.41 4.38834 11.41H9.61215C9.8256 11.41 10.0002 11.635 10.0002 11.91C10.0002 12.185 9.8256 12.41 9.61215 12.41Z" fill="#52DAC6"/>
<path d="M9.61215 10.41H4.38834C4.17489 10.41 4.00024 10.185 4.00024 9.90997C4.00024 9.63497 4.17489 9.40997 4.38834 9.40997H9.61215C9.8256 9.40997 10.0002 9.63497 10.0002 9.90997C10.0002 10.185 9.8256 10.41 9.61215 10.41Z" fill="#52DAC6"/>
<path d="M7.6098 0.280067L9.8668 2.98188C9.96565 3.09171 10.0096 3.21801 9.9986 3.36079C9.98761 3.50357 9.92721 3.61889 9.81738 3.70676C9.70755 3.8056 9.58124 3.84953 9.43846 3.83855C9.29569 3.82757 9.17487 3.76716 9.07603 3.65733L7.6757 1.92751C7.66471 1.90555 7.64824 1.90006 7.62627 1.91104C7.59332 1.92202 7.57685 1.9385 7.57685 1.96046L7.57685 6.85338C7.57685 7.00714 7.52194 7.13894 7.41211 7.24877C7.29129 7.36958 7.15401 7.42999 7.00024 7.42999C6.84648 7.42999 6.71469 7.36958 6.60486 7.24877C6.48404 7.13894 6.42364 7.00714 6.42364 6.85338L6.42364 1.96046C6.42364 1.9385 6.41265 1.92202 6.39069 1.91104C6.36872 1.90006 6.34676 1.90555 6.32479 1.92751L4.92446 3.65733C4.82561 3.76716 4.7048 3.82757 4.56202 3.83855C4.41924 3.84953 4.29294 3.8056 4.18311 3.70676C4.07328 3.61889 4.01288 3.50357 4.00189 3.36079C3.99091 3.21801 4.03484 3.09171 4.13369 2.98188L6.39069 0.280067C6.55543 0.0933571 6.75862 1.43051e-06 7.00024 1.43051e-06C7.24187 1.43051e-06 7.44505 0.0933571 7.6098 0.280067Z" fill="#0F0A54"/>
</svg>
