<svg width="14" height="20" viewBox="0 0 14 20" fill="none" xmlns="http://www.w3.org/2000/svg">
<g clip-path="url(#clip0_19_1674)">
<path d="M7.05629 13.6739C10.6349 13.6739 13.5359 10.7437 13.5359 7.12919C13.5359 3.51463 10.6349 0.584457 7.05629 0.584457C3.47769 0.584457 0.57666 3.51463 0.57666 7.12919C0.57666 10.7437 3.47769 13.6739 7.05629 13.6739Z" fill="#52DAC6"/>
<path d="M12.9592 7.06611C12.9446 9.55113 11.3939 11.868 9.06061 12.7173C6.68148 13.5835 4.01511 12.8456 2.39364 10.8903C0.772176 8.93513 0.613984 6.09691 1.90033 3.94827C3.18669 1.79963 5.724 0.66434 8.151 1.1584C10.6009 1.65667 12.4971 3.66445 12.8947 6.15157C12.9426 6.45431 12.9592 6.76126 12.9592 7.06611C12.9634 7.74307 14.0041 7.74307 13.9999 7.06611C13.9833 4.10174 12.1245 1.43381 9.37075 0.412054C6.65026 -0.594989 3.45103 0.288013 1.61517 2.55228C-0.247747 4.85019 -0.528746 8.15935 1.00322 10.7158C2.53518 13.2724 5.51169 14.5674 8.39245 13.9977C11.2732 13.4279 13.4629 11.0712 13.9042 8.22662C13.9646 7.84189 13.9979 7.45715 13.9999 7.06821C14.0041 6.39124 12.9634 6.39124 12.9592 7.06821V7.06611Z" fill="#0F0A54"/>
<path d="M4.65405 10.7831H7.92404C8.59428 10.7831 8.59428 9.73194 7.92404 9.73194H7.90947V10.7831C9.03555 10.7558 9.97638 9.84967 9.97846 8.69336C9.98054 7.53705 9.03139 6.63092 7.90947 6.60359V7.65478H7.97608C8.64631 7.65478 8.64631 6.60359 7.97608 6.60359H6.13397C5.46374 6.60359 5.46374 7.65478 6.13397 7.65478H6.20058C6.87082 7.65478 6.87082 6.6183 6.20058 6.60359C5.6365 6.59097 5.17233 6.14316 5.17233 5.56501C5.17233 4.98685 5.6365 4.53904 6.20058 4.52643C6.86873 4.51171 6.8729 3.47523 6.20058 3.47523H6.18601C5.51578 3.47523 5.51578 4.52643 6.18601 4.52643H9.45601C10.1262 4.52643 10.1262 3.47523 9.45601 3.47523H6.18601C5.51578 3.47523 5.51578 4.52643 6.18601 4.52643H6.20058V3.47523C5.0745 3.50257 4.13368 4.40869 4.1316 5.56501C4.12951 6.72132 5.07867 7.62745 6.20058 7.65478V6.60359H6.13397C5.46374 6.60359 5.46374 7.65478 6.13397 7.65478H7.97608C8.64631 7.65478 8.64631 6.60359 7.97608 6.60359H7.90947C7.23924 6.60359 7.23924 7.64006 7.90947 7.65478C8.47355 7.66739 8.93772 8.1152 8.93772 8.69336C8.93772 9.27151 8.47355 9.71932 7.90947 9.73194C7.24132 9.74665 7.23716 10.7831 7.90947 10.7831H7.92404C8.59428 10.7831 8.59428 9.73194 7.92404 9.73194H4.65405C3.98381 9.73194 3.98381 10.7831 4.65405 10.7831Z" fill="#0F0A54"/>
<path d="M6.53564 2.59223V11.6682C6.53564 12.3452 7.57638 12.3452 7.57638 11.6682V2.59223C7.57638 1.91526 6.53564 1.91526 6.53564 2.59223Z" fill="#0F0A54"/>
<path d="M12.8156 8.67654C13.4338 11.4979 11.9456 14.4602 9.28961 15.5703C6.75021 16.6299 3.69877 15.7574 2.12517 13.4721C1.16353 12.0761 0.822169 10.3395 1.18643 8.67654C1.33005 8.01639 0.328859 7.73677 0.183156 8.39692C-0.197754 10.1314 0.0436974 11.9584 0.915835 13.5057C1.69431 14.8849 2.92238 15.9529 4.37108 16.5584C7.38714 17.8177 10.9277 16.6887 12.774 14.004C13.8917 12.3788 14.2394 10.3206 13.8168 8.39902C13.6711 7.73888 12.6678 8.01849 12.8135 8.67864L12.8156 8.67654Z" fill="#0F0A54"/>
<path d="M-3.16649e-05 7.06611V11.9857C-3.16649e-05 12.8035 -0.0125205 13.6108 0.153997 14.4203C0.45373 15.8772 1.24261 17.2417 2.34787 18.2256C4.66872 20.2922 8.176 20.6013 10.7862 18.892C12.0392 18.07 12.9946 16.8716 13.5379 15.4693C13.9042 14.5212 14 13.5309 14 12.5239V7.06611C14 6.38914 12.9592 6.38914 12.9592 7.06611V11.7797C12.9592 12.4419 12.9988 13.1315 12.9051 13.7895C12.7136 15.1372 12.0684 16.386 11.0921 17.3215C9.08352 19.2494 5.94466 19.4828 3.65504 17.9291C2.56226 17.187 1.72759 16.0601 1.32795 14.7945C1.07401 13.9914 1.04279 13.1862 1.04279 12.3536V7.06611C1.04071 6.39124 -3.16649e-05 6.38914 -3.16649e-05 7.06611Z" fill="#0F0A54"/>
</g>
<defs>
<clipPath id="clip0_19_1674">
<rect width="14" height="20" fill="white"/>
</clipPath>
</defs>
</svg>
