<svg width="42" height="40" viewBox="0 0 42 40" fill="none" xmlns="http://www.w3.org/2000/svg">
<path d="M39.375 20C39.375 30.2051 30.8807 38.5 20.375 38.5C9.86927 38.5 1.375 30.2051 1.375 20C1.375 9.7949 9.86927 1.5 20.375 1.5C30.8807 1.5 39.375 9.7949 39.375 20Z" fill="#EFEFEF" stroke="#52DAC6"/>
<path d="M16.5817 24.3803C16.6563 24.2975 16.7347 24.2178 16.8048 24.1314C17.0466 23.8329 17.2858 23.5322 17.5255 23.232C17.7455 22.9566 17.9614 22.6779 18.1852 22.4056C18.4776 22.05 18.7739 21.6975 19.0724 21.3471C19.3775 20.9889 19.6813 20.6292 19.9967 20.2801C20.4516 19.7767 20.9084 19.2745 21.3792 18.7861C21.948 18.1959 22.5275 17.6159 23.1115 17.0409C23.4673 16.6906 23.8388 16.3563 24.2063 16.0182C24.4473 15.7966 24.6941 15.5812 24.9376 15.3623C24.9589 15.3432 24.9755 15.3188 24.9943 15.2968C25.0222 15.2686 25.0502 15.2404 25.0781 15.2122C25.0832 15.2107 25.0865 15.2075 25.0881 15.2025C25.129 15.1792 25.1739 15.161 25.21 15.1317C25.4016 14.9767 25.5927 14.8211 25.7803 14.6613C25.8794 14.577 25.971 14.4838 26.066 14.3946C26.2361 14.2603 26.4049 14.1241 26.5768 13.9919C26.8715 13.7651 27.1632 13.5339 27.465 13.3168C28.129 12.8391 28.7891 12.3551 29.4685 11.9001C30.0621 11.5026 30.6777 11.1376 31.2878 10.7652C31.6254 10.5591 31.9685 10.3614 32.315 10.1707C32.5867 10.0212 32.8674 9.88822 33.1569 9.76336C32.6099 10.2983 32.0629 10.8332 31.5159 11.3681C31.4556 11.4308 31.3952 11.4935 31.3348 11.5562C31.2317 11.6615 31.1282 11.7672 31.025 11.8724C30.9701 11.9251 30.9126 11.9754 30.8608 12.031C30.6553 12.2516 30.4516 12.4739 30.2472 12.6956C29.8921 13.0954 29.5356 13.4942 29.1824 13.8958C29.0342 14.0643 28.8895 14.2362 28.7489 14.4112C28.2136 15.0774 27.6718 15.7386 27.1496 16.4149C26.7283 16.9608 26.3264 17.5219 25.9258 18.0834C25.5875 18.5575 25.2582 19.0382 24.9346 19.5225C24.5918 20.0355 24.2599 20.5559 23.924 21.0735C23.7418 21.3542 23.5559 21.6326 23.3813 21.918C23.0505 22.4588 22.724 23.0022 22.4009 23.5477C22.1398 23.9883 21.8849 24.4327 21.6299 24.8768C21.3032 25.4456 20.9795 26.016 20.6537 26.5853C20.4989 26.8558 20.342 27.125 20.1865 27.395C20.0685 27.6 19.9541 27.8072 19.8328 28.0102C19.6365 28.3385 19.4316 28.6617 19.2382 28.9917C19.0469 29.3183 18.8326 29.6259 18.5439 29.8737C18.3122 30.0725 18.0402 30.1971 17.7462 30.2752C17.6144 30.2809 17.4826 30.2905 17.3508 30.2911C17.2548 30.2916 17.1589 30.2802 17.0629 30.2741C16.7786 30.2253 16.5219 30.1069 16.2724 29.9669C15.7187 29.6561 15.2481 29.2389 14.7938 28.8039C14.3637 28.3922 13.9449 27.9684 13.5277 27.5435C13.1854 27.1946 12.8519 26.837 12.516 26.482C12.2343 26.1843 11.9532 25.886 11.6746 25.5854C11.3765 25.2637 11.0825 24.9382 10.7852 24.6157C10.5818 24.3949 10.3737 24.1784 10.1717 23.9563C9.88412 23.6401 9.6051 23.3161 9.31264 23.0046C9.17746 22.8606 9.0717 22.7114 9.03193 22.5134C8.9784 22.2469 9.04615 22.0162 9.19918 21.7999C9.30408 21.6516 9.44611 21.5431 9.61602 21.5129C9.81867 21.477 10.0311 21.47 10.2268 21.5743C10.5171 21.7291 10.8088 21.8814 11.1 22.0347C11.594 22.2948 12.0885 22.5538 12.5816 22.8154C12.9106 22.9899 13.2365 23.1703 13.5657 23.3444C13.8746 23.5077 14.1859 23.6668 14.4967 23.8266C14.8254 23.9955 15.1541 24.1647 15.4846 24.33C15.5704 24.373 15.6632 24.402 15.7528 24.4374C15.7969 24.4562 15.8414 24.4741 15.885 24.494C16.0955 24.5905 16.2976 24.5461 16.4952 24.4547C16.5284 24.4394 16.5531 24.4055 16.5817 24.3803Z" fill="#52DAC6"/>
<path d="M26.066 14.3946C25.971 14.4838 25.8794 14.577 25.7803 14.6613C25.5927 14.8211 25.4016 14.9767 25.21 15.1317C25.1739 15.161 25.129 15.1792 25.0881 15.2025C25.0759 15.1921 25.0636 15.1817 25.055 15.1743C25.145 15.1142 25.2714 15.0732 25.3164 14.9888C25.3714 14.8855 25.47 14.8617 25.5401 14.7932C25.6781 14.6587 25.8347 14.5431 25.9856 14.4222C26.0064 14.4055 26.0389 14.4034 26.066 14.3946Z" fill="#52DAC6"/>
<path d="M30.2472 12.6956C30.4516 12.4739 30.6553 12.2516 30.8608 12.031C30.9126 11.9754 30.9701 11.9251 31.025 11.8724C31.0215 11.9778 30.9421 12.0344 30.8775 12.0997C30.7658 12.2125 30.6527 12.3238 30.5405 12.4362C30.4716 12.5051 30.405 12.5763 30.3342 12.6431C30.3101 12.6658 30.2765 12.6784 30.2472 12.6956Z" fill="#52DAC6"/>
<path d="M16.5817 24.3803C16.5531 24.4055 16.5284 24.4394 16.4952 24.4547C16.2976 24.5461 16.0955 24.5905 15.885 24.494C15.8414 24.4741 15.7969 24.4562 15.7528 24.4374C15.8341 24.372 15.8913 24.4681 15.963 24.4689C16.0785 24.4702 16.1957 24.4858 16.3091 24.4712C16.4023 24.4591 16.491 24.4119 16.5817 24.3803Z" fill="#52DAC6"/>
<path d="M31.025 11.8724C31.1282 11.7672 31.2317 11.6615 31.3348 11.5562C31.3402 11.6854 31.208 11.7065 31.1497 11.786C31.1214 11.8245 31.0674 11.8442 31.025 11.8724Z" fill="#52DAC6"/>
<path d="M17.0629 30.2741C17.1589 30.2802 17.2548 30.2916 17.3508 30.2911C17.4826 30.2905 17.6144 30.2809 17.7462 30.2752C17.7262 30.287 17.7064 30.3088 17.6862 30.309C17.498 30.3116 17.3098 30.3115 17.1216 30.3088C17.1019 30.3085 17.0825 30.2862 17.0629 30.2741Z" fill="#52DAC6"/>
<path d="M31.5159 11.3681C31.4556 11.4308 31.3952 11.4935 31.3348 11.5562C31.4164 11.5479 31.5014 11.4596 31.5159 11.3681Z" fill="#52DAC6"/>
<path d="M24.9943 15.2968C25.0222 15.2686 25.0502 15.2404 25.0781 15.2122C25.0077 15.1983 24.9985 15.2451 24.9943 15.2968Z" fill="#52DAC6"/>
</svg>
