<svg width="7" height="10" viewBox="0 0 7 10" fill="none" xmlns="http://www.w3.org/2000/svg">
<g clip-path="url(#clip0_203_1008)">
<path d="M3.52815 6.83697C5.31745 6.83697 6.76796 5.37188 6.76796 3.5646C6.76796 1.75732 5.31745 0.292236 3.52815 0.292236C1.73884 0.292236 0.28833 1.75732 0.28833 3.5646C0.28833 5.37188 1.73884 6.83697 3.52815 6.83697Z" fill="#52DAC6"/>
<path d="M6.4796 3.53308C6.47232 4.77559 5.69697 5.93401 4.5303 6.35869C3.34074 6.79178 2.00756 6.42281 1.19682 5.4452C0.386088 4.46759 0.306992 3.04848 0.950167 1.97416C1.59334 0.899845 2.862 0.3322 4.0755 0.579231C5.30045 0.828364 6.24856 1.83225 6.44734 3.07581C6.47128 3.22719 6.4796 3.38066 6.4796 3.53308C6.48169 3.87157 7.00206 3.87157 6.99997 3.53308C6.99165 2.0509 6.06227 0.716937 4.68537 0.206057C3.32513 -0.297464 1.72552 0.144037 0.807586 1.27617C-0.123873 2.42513 -0.264373 4.0797 0.50161 5.35795C1.26759 6.63621 2.75585 7.28374 4.19623 6.99887C5.63661 6.71399 6.73146 5.53561 6.9521 4.11334C6.98228 3.92097 6.99893 3.72861 6.99997 3.53413C7.00206 3.19565 6.48169 3.19565 6.4796 3.53413V3.53308Z" fill="#0F0A54"/>
<path d="M2.32714 5.3915H3.96214C4.29726 5.3915 4.29726 4.8659 3.96214 4.8659H3.95486V5.3915C4.5179 5.37783 4.98831 4.92477 4.98935 4.34661C4.99039 3.76845 4.51582 3.31539 3.95486 3.30172V3.82732H3.98816C4.32328 3.82732 4.32328 3.30172 3.98816 3.30172H3.06711C2.73199 3.30172 2.73199 3.82732 3.06711 3.82732H3.10041C3.43553 3.82732 3.43553 3.30908 3.10041 3.30172C2.81837 3.29542 2.58629 3.07151 2.58629 2.78243C2.58629 2.49336 2.81837 2.26945 3.10041 2.26315C3.43449 2.25579 3.43657 1.73755 3.10041 1.73755H3.09313C2.75801 1.73755 2.75801 2.26315 3.09313 2.26315H4.72813C5.06324 2.26315 5.06324 1.73755 4.72813 1.73755H3.09313C2.75801 1.73755 2.75801 2.26315 3.09313 2.26315H3.10041V1.73755C2.53737 1.75121 2.06696 2.20428 2.06592 2.78243C2.06488 3.36059 2.53946 3.81366 3.10041 3.82732V3.30172H3.06711C2.73199 3.30172 2.73199 3.82732 3.06711 3.82732H3.98816C4.32328 3.82732 4.32328 3.30172 3.98816 3.30172H3.95486C3.61974 3.30172 3.61974 3.81996 3.95486 3.82732C4.2369 3.83363 4.46898 4.05753 4.46898 4.34661C4.46898 4.63569 4.2369 4.85959 3.95486 4.8659C3.62078 4.87326 3.6187 5.3915 3.95486 5.3915H3.96214C4.29726 5.3915 4.29726 4.8659 3.96214 4.8659H2.32714C1.99203 4.8659 1.99203 5.3915 2.32714 5.3915Z" fill="#0F0A54"/>
<path d="M3.26807 1.2961V5.8341C3.26807 6.17258 3.78844 6.17258 3.78844 5.8341V1.2961C3.78844 0.957615 3.26807 0.957615 3.26807 1.2961Z" fill="#0F0A54"/>
<path d="M6.40769 4.33826C6.71679 5.74896 5.97266 7.23009 4.64468 7.78512C3.37498 8.31493 1.84926 7.87868 1.06246 6.73603C0.581643 6.03804 0.410962 5.16976 0.593091 4.33826C0.664902 4.00819 0.164308 3.86838 0.091456 4.19845C-0.0989989 5.06569 0.0217266 5.97917 0.457796 6.75285C0.847031 7.44244 1.46107 7.97644 2.18542 8.27919C3.69345 8.90885 5.46374 8.34436 6.38688 7.00199C6.94575 6.18941 7.11956 5.1603 6.90829 4.1995C6.83543 3.86943 6.3338 4.00924 6.40665 4.33931L6.40769 4.33826Z" fill="#0F0A54"/>
<path d="M-0.000137903 3.53304V5.99283C-0.000137903 6.40174 -0.00638233 6.8054 0.0768767 7.21011C0.226743 7.93859 0.621182 8.62081 1.17381 9.11277C2.33424 10.1461 4.08788 10.3006 5.39296 9.446C6.01949 9.03498 6.49719 8.4358 6.76882 7.73466C6.95199 7.26057 6.99986 6.76546 6.99986 6.26194V3.53304C6.99986 3.19455 6.47949 3.19455 6.47949 3.53304V5.88981C6.47949 6.22094 6.49927 6.56573 6.45243 6.89475C6.35669 7.56857 6.03406 8.19298 5.54595 8.66076C4.54164 9.6247 2.97221 9.74138 1.8274 8.96455C1.28101 8.59348 0.863674 8.03004 0.663853 7.39722C0.536883 6.99567 0.521272 6.59306 0.521272 6.17679V3.53304C0.520231 3.1956 -0.000137903 3.19455 -0.000137903 3.53304Z" fill="#0F0A54"/>
</g>
<defs>
<clipPath id="clip0_203_1008">
<rect width="7" height="10" fill="white"/>
</clipPath>
</defs>
</svg>
