<svg width="24" height="24" viewBox="0 0 24 24" fill="none" xmlns="http://www.w3.org/2000/svg">
<g clip-path="url(#clip0_12_1628)">
<path d="M12.0012 23.179C18.2408 23.179 23.2989 18.1176 23.2989 11.874C23.2989 5.63044 18.2408 0.569031 12.0012 0.569031C5.76174 0.569031 0.703613 5.63044 0.703613 11.874C0.703613 18.1176 5.76174 23.179 12.0012 23.179Z" fill="#52DAC6"/>
<path d="M22.5948 12.0012C22.5767 16.3897 19.7879 20.4663 15.6464 21.9603C11.5049 23.4543 6.6909 22.1837 3.8217 18.7437C0.952502 15.3036 0.640915 10.302 2.94147 6.50333C5.22644 2.73327 9.77042 0.719631 14.0911 1.60563C18.4222 2.49164 21.7795 6.02005 22.478 10.3903C22.5585 10.8918 22.5922 11.4634 22.5948 12.0012C22.5974 12.908 24.0048 12.908 24.0022 12.0012C23.9918 9.53808 23.2414 7.08793 21.8055 5.07949C20.3696 3.07104 18.4014 1.56666 16.1034 0.714435C11.4244 -1.016 5.9379 0.475396 2.77269 4.3286C1.18879 6.25649 0.235852 8.60271 0.0359165 11.0918C-0.164019 13.581 0.443576 16.0909 1.72628 18.2084C3.00898 20.326 4.82917 21.9369 7.01028 22.9216C9.3342 23.9687 11.9204 24.2675 14.4209 23.7635C19.2245 22.7969 23.1115 18.7541 23.8464 13.8979C23.9424 13.2692 23.997 12.6378 23.9996 12.0012C24.0022 11.0944 22.5974 11.0944 22.5922 12.0012H22.5948Z" fill="#0F0A54"/>
<path d="M7.91175 18.3566H13.6138C14.6992 18.3566 14.6992 16.6703 13.6138 16.6703H13.5878V18.3566C15.5145 18.3254 17.1295 16.7639 17.1295 14.8126C17.1295 12.8613 15.5145 11.2998 13.5878 11.2686V12.9548H13.7047C14.79 12.9548 14.79 11.2686 13.7047 11.2686H10.4953C9.40997 11.2686 9.40997 12.9548 10.4953 12.9548H10.6122C11.6975 12.9548 11.6975 11.2868 10.6122 11.2686C10.1136 11.2608 9.66443 11.0893 9.29832 10.723C8.9322 10.3566 8.75563 9.9071 8.75304 9.40824C8.75044 8.90938 8.9348 8.46767 9.26716 8.12471C9.48527 7.89866 9.59432 7.81292 9.92409 7.67261C9.82022 7.71678 9.96563 7.66222 10.0046 7.64923C10.0747 7.62844 10.1422 7.60765 10.2149 7.58947C10.2175 7.58947 10.4798 7.5453 10.3395 7.56089C10.4304 7.55049 10.5187 7.54789 10.6096 7.54789C11.6923 7.52971 11.6975 5.86163 10.6096 5.86163H10.5836C9.49825 5.86163 9.49825 7.54789 10.5836 7.54789C12.2428 7.54789 13.8994 7.54789 15.5586 7.54789H16.2857C17.371 7.54789 17.371 5.86163 16.2857 5.86163H10.5836C9.49825 5.86163 9.49825 7.54789 10.5836 7.54789H10.6096V5.86163C8.68293 5.89281 7.06787 7.45436 7.06787 9.40564C7.06787 11.3569 8.68293 12.9185 10.6096 12.9496V11.2634H10.4927C9.40737 11.2634 9.40737 12.9496 10.4927 12.9496H13.7021C14.7874 12.9496 14.7874 11.2634 13.7021 11.2634H13.5852C12.4999 11.2634 12.4999 12.9315 13.5852 12.9496C14.0838 12.9574 14.533 13.1289 14.8991 13.4953C15.2652 13.8616 15.4418 14.3111 15.4444 14.81C15.447 15.3089 15.2626 15.7506 14.9303 16.0935C14.7121 16.3196 14.6031 16.4053 14.2733 16.5456C14.3772 16.5015 14.2318 16.556 14.1928 16.569C14.1227 16.5898 14.0552 16.6106 13.9825 16.6288C13.9799 16.6288 13.7177 16.6729 13.8579 16.6573C13.767 16.6677 13.6787 16.6703 13.5878 16.6703C12.5051 16.6885 12.4999 18.3566 13.5878 18.3566H13.6138C14.6992 18.3566 14.6992 16.6703 13.6138 16.6703H7.91175C6.82639 16.6703 6.82639 18.3566 7.91175 18.3566Z" fill="#0F0A54"/>
<path d="M11.4717 4.27151V19.9493C11.4717 20.7574 12.7258 20.7574 12.7258 19.9493V4.27151C12.7258 3.46345 11.4717 3.46345 11.4717 4.27151Z" fill="#0F0A54"/>
</g>
<defs>
<clipPath id="clip0_12_1628">
<rect width="24" height="24" fill="white"/>
</clipPath>
</defs>
</svg>
