<svg width="20" height="20" viewBox="0 0 20 20" fill="none" xmlns="http://www.w3.org/2000/svg">
<path d="M19.4704 10.2441H0.615967V13.2011H19.4704V10.2441Z" fill="#52DAC6"/>
<path d="M18.5102 18.6044H6.56965C4.90373 18.6044 3.24004 18.6134 1.57412 18.6044C1.32847 18.6044 1.14535 18.5103 1.12525 18.2457C1.11186 18.0552 1.12525 17.8556 1.12525 17.6651V10.5179C1.12525 9.84756 1.07613 9.15705 1.12525 8.48897C1.16098 8.0092 1.77733 8.12578 2.15696 8.12578H18.1864C18.2936 8.12578 18.4031 8.11681 18.5102 8.12578C18.8274 8.15044 18.8653 8.39032 18.8653 8.66832V11.3765C18.8653 13.605 18.8653 15.8334 18.8653 18.0619C18.8653 18.3332 18.8296 18.591 18.5102 18.6044C17.7934 18.6336 17.7912 19.7545 18.5102 19.7254C19.3611 19.6917 19.973 19.0394 19.9819 18.1897C19.9841 17.905 19.9819 17.6202 19.9819 17.3355V9.86549C19.9819 9.06514 20.1561 7.98454 19.4995 7.39268C18.9747 6.91964 18.278 7.00707 17.6304 7.00707H14.801C12.1078 7.00707 9.4169 7.00707 6.72373 7.00707C5.00198 7.00707 3.28023 6.99362 1.55625 7.00707C0.93767 7.01155 0.377152 7.32318 0.129274 7.91056C-0.000248122 8.22218 0.0109176 8.53381 0.0109176 8.86112V12.0132C0.0109176 13.3673 0.0109176 14.7215 0.0109176 16.0756C0.0109176 17.4297 -0.013647 17.5193 0.0109176 18.239C0.0377152 19.0707 0.662994 19.7007 1.49372 19.7254C1.63888 19.7299 1.78626 19.7254 1.93365 19.7254H4.37671C7.01404 19.7254 9.64915 19.7254 12.2865 19.7254H18.5125C19.2316 19.7254 19.2316 18.6044 18.5125 18.6044H18.5102Z" fill="#0F0A54"/>
<path d="M19.4212 12.6407H0.569027L1.12731 13.2012V10.2441L0.569027 10.8046H19.4212L18.8629 10.2441V13.2012C18.8629 13.9231 19.9795 13.9231 19.9795 13.2012V10.2441C19.9795 9.94144 19.7227 9.68362 19.4212 9.68362H0.569027C0.26532 9.68362 0.0107422 9.94144 0.0107422 10.2441V13.2012C0.0107422 13.5038 0.267553 13.7616 0.569027 13.7616H19.4212C20.1403 13.7616 20.1403 12.6407 19.4212 12.6407Z" fill="#0F0A54"/>
<path d="M12.6235 16.4945H16.7437C17.4627 16.4945 17.4627 15.3736 16.7437 15.3736H12.6235C11.9045 15.3736 11.9045 16.4945 12.6235 16.4945Z" fill="#0F0A54"/>
<path d="M7.76517 1.01951L7.76531 1.0194L7.75637 1.00925C7.46476 0.678766 7.08316 0.500065 6.64145 0.500065C6.19973 0.500065 5.81814 0.678767 5.52653 1.00925L5.52639 1.00913L5.51772 1.01951L2.78288 4.29333C2.57929 4.52335 2.47899 4.80736 2.50292 5.11841C2.52628 5.42215 2.66109 5.68712 2.8977 5.88127C3.12719 6.08309 3.41009 6.18242 3.7198 6.15859C4.02563 6.13507 4.29022 5.99996 4.49309 5.77455L4.50184 5.76483L4.51007 5.75466L5.44145 4.60414L5.44145 10.3201C5.44145 10.649 5.57479 10.9344 5.80764 11.1539C6.02707 11.3867 6.31252 11.5201 6.64145 11.5201C6.97604 11.5201 7.26598 11.3826 7.495 11.1536L7.14145 10.8001L7.495 11.1536C7.72103 10.9276 7.84145 10.6408 7.84145 10.3201L7.84145 4.60414L8.77282 5.75466L8.78105 5.76483L8.7898 5.77455C8.99267 5.99996 9.25727 6.13507 9.5631 6.15859C9.8728 6.18242 10.1557 6.08309 10.3852 5.88127C10.6218 5.68712 10.7566 5.42215 10.78 5.11841C10.8039 4.80736 10.7036 4.52335 10.5 4.29333L7.76517 1.01951Z" fill="#0F0A54" stroke="white"/>
</svg>
