<svg width="15" height="17" viewBox="0 0 15 17" fill="none" xmlns="http://www.w3.org/2000/svg">
<path opacity="0.28" d="M13.6031 7.30454V6.39181C13.6031 3.07465 10.8979 0.377335 7.57102 0.377335C4.24414 0.377335 1.53721 3.07465 1.53721 6.39181V7.29773C0.992406 7.43906 0.587646 7.93289 0.587646 8.52037V10.7409C0.587646 11.4374 1.15636 12.0061 1.85657 12.0061H2.44407C2.44749 12.0248 2.45261 12.0436 2.45944 12.0623C3.36631 14.4804 5.36449 16.0419 7.55053 16.0419C9.73657 16.0419 11.7638 14.465 12.6621 12.0061H13.253C13.9686 12.0061 14.551 11.4254 14.551 10.7119V8.55103C14.551 7.95843 14.1479 7.45779 13.6014 7.30624L13.6031 7.30454ZM7.57102 0.958007C10.5751 0.958007 13.0208 3.39479 13.0208 6.39181V7.25516H12.9183C12.9183 7.25516 12.9115 7.25516 12.908 7.25516C12.7407 4.48121 10.4163 2.28623 7.61543 2.28623C7.58469 2.28623 7.55394 2.28623 7.5232 2.28623C4.73942 2.33391 2.48335 4.50675 2.32111 7.26026C2.28866 7.25686 2.25621 7.25345 2.22205 7.25345H2.11958V6.39011C2.11958 3.39479 4.56351 0.956304 7.56932 0.956304L7.57102 0.958007ZM8.12095 4.85584C7.84428 6.07678 6.85544 7.13936 5.65824 7.49866C5.35766 7.58891 5.04854 7.64 4.71892 7.69449C4.48324 7.73366 4.23902 7.77452 3.9965 7.83072C3.64298 7.91416 3.33215 8.02825 3.06914 8.17299V8.09977C3.06914 7.89032 2.99229 7.6979 2.8642 7.54975C2.88299 7.51229 2.89494 7.47142 2.89665 7.42885C2.97351 4.91544 5.01096 2.91288 7.53345 2.87031C7.56078 2.87031 7.5881 2.87031 7.61543 2.87031C10.1669 2.87031 12.2761 4.91714 12.3342 7.46971C12.3342 7.47653 12.3359 7.48163 12.3359 7.48845C12.2129 7.60424 12.1241 7.7575 12.0883 7.92778C10.6178 7.51399 9.27374 6.26409 8.7426 4.81667C8.69308 4.68044 8.56328 4.59189 8.41641 4.60211C8.27124 4.61063 8.15169 4.7128 8.11924 4.85584H8.12095ZM1.17173 10.7409V8.52037C1.17173 8.14404 1.47914 7.83753 1.85657 7.83753H2.22205C2.36722 7.83753 2.48506 7.95503 2.48506 8.09977V11.4254H1.85657C1.47914 11.4254 1.17173 11.1189 1.17173 10.7426V10.7409ZM7.55053 15.4595C5.61896 15.4595 3.84109 14.0563 3.0162 11.8818C3.05036 11.8341 3.06914 11.7762 3.06914 11.7149V8.832C3.10672 8.82348 3.14258 8.81156 3.17503 8.78942C3.41925 8.61914 3.74033 8.48802 4.12972 8.39777C4.35174 8.34498 4.57717 8.30922 4.81456 8.27006C5.14588 8.21556 5.49087 8.15767 5.82561 8.0572C7.01597 7.6996 7.99969 6.78857 8.47618 5.64937C9.18664 7.00143 10.4863 8.08444 11.9363 8.49143C11.9824 8.50335 12.0268 8.50335 12.0712 8.49483V11.7166C12.0712 11.7626 12.0831 11.8052 12.1019 11.8426C12.037 12.018 11.9653 12.1883 11.8885 12.3535C11.8885 12.3535 11.8867 12.3535 11.885 12.3535C10.8108 12.8916 9.76731 13.0942 8.9817 13.1606C8.81775 12.8065 8.36346 12.5561 7.81354 12.5561C7.12186 12.5561 6.57877 12.9495 6.57877 13.4518C6.57877 13.9542 7.12015 14.3492 7.81354 14.3492C8.36176 14.3492 8.81604 14.1006 8.98 13.7481C9.65289 13.6953 10.5051 13.5489 11.4205 13.1947C10.4846 14.6081 9.07905 15.4612 7.55224 15.4612L7.55053 15.4595ZM7.52491 13.7243C7.54711 13.7277 7.68886 13.7481 7.92113 13.7618C7.88527 13.7652 7.8494 13.7686 7.81183 13.7686C7.42073 13.7686 7.16114 13.5795 7.16114 13.4535C7.16114 13.3888 7.23287 13.3071 7.35413 13.2424C7.31655 13.2833 7.29094 13.3343 7.28069 13.3922C7.25507 13.5506 7.36437 13.6987 7.5232 13.7243H7.52491ZM7.63763 13.1521C7.69228 13.1436 7.75035 13.1368 7.81354 13.1368C7.93479 13.1368 8.04239 13.1572 8.13461 13.1862C7.8716 13.1794 7.6974 13.1606 7.63934 13.1521H7.63763ZM13.9686 10.7102C13.9686 11.1036 13.6475 11.4237 13.253 11.4237H12.6536V8.09807C12.6536 7.95332 12.7714 7.83583 12.9166 7.83583H13.253C13.6475 7.83583 13.9686 8.15596 13.9686 8.54932V10.7102Z" fill="#2E2B20"/>
<path d="M0.427246 8.51697V10.259C0.427246 11.0151 1.04207 11.6281 1.80035 11.6281H2.48691V7.14958H1.80035C1.04207 7.14958 0.427246 7.76261 0.427246 8.51697Z" fill="#52DAC6"/>
<path d="M14.5665 8.74855V10.4906C14.5665 11.2466 13.9517 11.8597 13.1934 11.8597H12.5068V7.38116H13.1934C13.9517 7.38116 14.5665 7.99419 14.5665 8.74855Z" fill="#52DAC6"/>
<path d="M14.1395 8.74855C14.1395 9.32582 14.1497 9.90479 14.1395 10.4821C14.1327 10.9163 13.8526 11.2943 13.4256 11.405C13.1387 11.4799 12.8005 11.434 12.5068 11.434L12.9338 11.8597V7.38116L12.5068 7.80688C12.7783 7.80688 13.0738 7.77282 13.3419 7.8171C13.803 7.89202 14.1292 8.28878 14.1395 8.74855C14.1514 9.29517 15.0054 9.29687 14.9934 8.74855C14.9763 7.98568 14.5101 7.31986 13.7894 7.05762C13.3863 6.91118 12.9286 6.95545 12.5068 6.95545C12.2762 6.95545 12.0798 7.15128 12.0798 7.38116V11.8597C12.0798 12.0896 12.2762 12.2854 12.5068 12.2854C12.7374 12.2854 12.985 12.2922 13.2224 12.2854C13.7877 12.2701 14.3052 12.001 14.6433 11.5497C15.0822 10.964 14.9934 10.2232 14.9934 9.53527V8.74855C14.9934 8.20024 14.1395 8.20024 14.1395 8.74855Z" fill="#0F0A54"/>
<path d="M0.000124361 8.51697C0.000124361 9.04997 0.000124361 9.58126 0.000124361 10.1142C0.000124361 10.4804 0.0547754 10.8346 0.24093 11.1564C0.505646 11.6162 0.983843 11.9482 1.50986 12.0266C1.83093 12.0742 2.16226 12.0538 2.48675 12.0538C2.71731 12.0538 2.91371 11.858 2.91371 11.6281C2.91371 10.322 2.91371 9.01761 2.91371 7.71152V7.14958C2.91371 6.9197 2.71731 6.72387 2.48675 6.72387C2.06491 6.72387 1.60721 6.6796 1.20415 6.82604C0.483444 7.08828 0.0172028 7.75409 0.000124361 8.51697C-0.0118306 9.06529 0.842092 9.06529 0.854047 8.51697C0.864294 8.0572 1.18878 7.66044 1.65161 7.58551C1.91974 7.54124 2.2152 7.5753 2.48675 7.5753L2.05979 7.14958C2.05979 8.45567 2.05979 9.76005 2.05979 11.0661V11.6281C2.20154 11.4867 2.345 11.3437 2.48675 11.2024C2.193 11.2024 1.85484 11.2483 1.56793 11.1734C1.14096 11.0627 0.862586 10.6847 0.854047 10.2505C0.8438 9.67321 0.854047 9.09424 0.854047 8.51697C0.854047 7.93971 0.000124361 7.96865 0.000124361 8.51697Z" fill="#0F0A54"/>
<path d="M12.775 6.30496C12.7733 6.6285 12.7459 6.94864 12.6879 7.26878L13.0995 6.95545H12.5068C12.2763 6.95545 12.0799 7.15128 12.0799 7.38116V7.49866H12.9338C12.9201 5.25941 11.5231 3.25175 9.43443 2.43949C7.34403 1.62723 4.85399 2.26069 3.39891 3.96013C2.57744 4.92054 2.11461 6.12105 2.07875 7.38287L2.808 7.08146C2.62355 6.92991 2.4391 6.78006 2.25466 6.6285L2.36396 6.81582C2.27173 6.54506 2.21708 6.27431 2.21708 5.98823C2.21708 5.88436 2.22221 5.78219 2.23075 5.68002C2.23758 5.6102 2.24099 5.57784 2.24099 5.58125C2.25124 5.51654 2.26149 5.45183 2.27515 5.38883C2.3742 4.88819 2.53816 4.47099 2.77213 4.04017C3.28619 3.09679 4.0496 2.28964 4.98721 1.74302C7.0759 0.527184 9.7538 0.992062 11.3848 2.74941C12.2814 3.71492 12.7681 4.99377 12.775 6.30496C12.7784 6.85328 13.6323 6.85328 13.6289 6.30496C13.6135 3.47142 11.588 0.915434 8.78716 0.333059C7.38331 0.0418708 5.93335 0.247916 4.67809 0.939274C3.55774 1.55571 2.61159 2.52804 2.01214 3.65362C1.69961 4.2411 1.47759 4.87116 1.3939 5.53187C1.35804 5.81624 1.35462 6.09892 1.39049 6.38329C1.41952 6.61829 1.4588 6.87712 1.56127 7.09338C1.6757 7.33178 2.00019 7.51739 2.20342 7.68427C2.48521 7.91416 2.92071 7.77452 2.93267 7.38287C2.98561 5.51143 4.21526 3.79496 6.00337 3.18874C7.82223 2.57231 9.83578 3.15128 11.0586 4.62254C11.7264 5.42629 12.0748 6.46162 12.0799 7.50036C12.0833 8.04868 12.9338 8.04868 12.9338 7.50036V7.38287L12.5068 7.80858H13.0995C13.2737 7.80858 13.4786 7.67746 13.5111 7.49526C13.5828 7.1019 13.6255 6.70513 13.6289 6.30667C13.6323 5.75835 12.7784 5.75835 12.775 6.30667V6.30496Z" fill="#0F0A54"/>
<path d="M12.0797 7.49866C12.0797 8.62595 12.0985 9.75494 12.0797 10.8822C12.0404 13.0891 10.3479 14.9946 8.15678 15.3113C5.91438 15.6349 3.71127 14.2011 3.10156 12.0283C3.08278 11.9618 3.07253 11.8937 3.05033 11.829C3.02642 11.7592 3.03837 11.7796 3.04008 11.8188C3.03837 11.7864 3.04008 11.7524 3.04008 11.72V10.087C3.04008 9.98312 3.02813 9.87244 3.04008 9.76857C3.0435 9.73962 3.0435 9.78219 3.04179 9.7907C3.05716 9.70045 3.08619 9.6102 3.11181 9.52336C3.13572 9.43992 3.19208 9.33434 3.19891 9.2492C3.1955 9.29688 3.14085 9.36669 3.18867 9.27985C3.20916 9.24238 3.22965 9.20492 3.25186 9.16746C3.28089 9.11978 3.31334 9.07551 3.34579 9.03123C3.27577 9.12659 3.34066 9.03804 3.35945 9.01761C3.3919 8.98185 3.42435 8.94609 3.4585 8.91203C3.51828 8.85073 3.58318 8.79453 3.64978 8.74004C3.59342 8.78602 3.69589 8.70599 3.71297 8.69577C3.7625 8.66171 3.81203 8.62936 3.86326 8.59871C4.08358 8.46588 4.31243 8.37393 4.56006 8.30241C5.12536 8.14064 5.70944 8.10488 6.26278 7.89202C7.25846 7.51058 8.0082 6.79539 8.47103 5.83838C8.60595 5.55912 8.72037 5.27133 8.82114 4.97844H7.99796C8.1158 5.32582 8.30707 5.65618 8.51372 5.95758C9.01583 6.68981 9.66993 7.30284 10.4197 7.78134C11.0123 8.15937 11.6664 8.44375 12.3376 8.6549C12.5374 8.71791 12.8294 8.57997 12.8636 8.3569C12.9046 8.07252 12.9336 7.78985 12.9353 7.50207C12.9405 6.95375 12.0865 6.95375 12.0814 7.50207C12.0797 7.71152 12.0712 7.92267 12.0404 8.13212L12.5664 7.83413C11.5947 7.52761 10.6861 7.0406 9.95856 6.34413C9.82364 6.21471 9.69385 6.07848 9.57088 5.93715C9.51452 5.87244 9.46158 5.80773 9.40863 5.74132C9.37789 5.70215 9.41376 5.74813 9.41888 5.75324C9.40351 5.73451 9.38985 5.71407 9.37448 5.69534C9.35057 5.66299 9.32666 5.62893 9.30275 5.59658C9.15929 5.39394 9.02779 5.18108 8.91678 4.95971C8.89628 4.91884 8.8775 4.87797 8.857 4.8354C8.85017 4.82008 8.84334 4.80305 8.8348 4.78772C8.80064 4.71791 8.87408 4.895 8.85359 4.832C8.84505 4.80475 8.83138 4.77921 8.82284 4.75196C8.68451 4.34668 8.138 4.35009 7.99966 4.75196C7.65297 5.75324 7.12525 6.57742 6.16885 7.01676C5.66675 7.24664 5.04851 7.30454 4.48833 7.44077C3.92816 7.577 3.42947 7.81369 3.00251 8.1764C2.52261 8.58338 2.18787 9.21854 2.18787 9.85541C2.18787 10.4923 2.14859 11.1734 2.18787 11.8256C2.20495 12.0998 2.31254 12.391 2.40647 12.6464C2.51577 12.9427 2.64728 13.2305 2.80611 13.5046C3.1101 14.0274 3.50632 14.5076 3.96915 14.8993C4.93237 15.7149 6.14836 16.1849 7.41558 16.2071C9.89879 16.2513 12.1685 14.528 12.7731 12.1236C12.9575 11.3914 12.937 10.6506 12.937 9.90309V7.50207C12.937 6.95375 12.0831 6.95375 12.0831 7.50207L12.0797 7.49866Z" fill="#0F0A54"/>
<path d="M12.0798 7.49866C12.0781 7.70811 12.0695 7.91927 12.0388 8.12872L12.5648 7.83072C11.5931 7.5242 10.6845 7.03719 9.95695 6.34072C9.82203 6.2113 9.69223 6.07508 9.56927 5.93374C9.51291 5.86903 9.45996 5.80432 9.40702 5.73791C9.37628 5.69875 9.41214 5.74472 9.41727 5.74983C9.4019 5.7311 9.38823 5.71067 9.37286 5.69194C9.34895 5.65958 9.32504 5.62552 9.30113 5.59317C9.15768 5.39053 9.02617 5.17767 8.91516 4.9563C8.89467 4.91543 8.87588 4.87457 8.85539 4.83199C8.84856 4.81667 8.84172 4.79964 8.83318 4.78431C8.79903 4.7145 8.87247 4.89159 8.85197 4.82859C8.84343 4.80134 8.82977 4.7758 8.82123 4.74855C8.68289 4.34328 8.13638 4.34668 7.99805 4.74855C7.82043 5.25941 7.56767 5.81624 7.23806 6.20449C6.90844 6.59274 6.52759 6.86861 6.08355 7.04911C5.48069 7.29432 4.82829 7.31646 4.21517 7.51399C3.70282 7.67916 3.20754 7.9414 2.83182 8.33136C2.63883 8.53229 2.46634 8.76729 2.37241 9.03123H3.19559C2.46292 6.90947 3.36467 4.5391 5.3526 3.47142C7.17487 2.49398 9.47875 2.90437 10.8775 4.41139C11.6563 5.24919 12.0764 6.35945 12.0815 7.49696C12.0849 8.04528 12.9388 8.04528 12.9354 7.49696C12.9218 5.08061 11.272 2.89926 8.92199 2.2692C6.5515 1.63404 3.97095 2.71024 2.77204 4.84732C2.02401 6.18065 1.87372 7.81028 2.37241 9.25601C2.51245 9.66299 3.05213 9.65618 3.19559 9.25601C3.21608 9.19811 3.13411 9.3752 3.16997 9.3139C3.19047 9.27985 3.20584 9.24068 3.22633 9.20492C3.25366 9.15724 3.2844 9.11297 3.31514 9.06869C3.37662 8.97674 3.28269 9.10275 3.33051 9.04826C3.36125 9.0142 3.39028 8.97844 3.42273 8.94438C3.59523 8.76218 3.66695 8.70939 3.88214 8.58168C4.12466 8.43864 4.37742 8.34328 4.65067 8.27176C4.98712 8.18321 5.33381 8.15085 5.67196 8.06912C5.96742 7.9976 6.25263 7.89883 6.5293 7.77623C7.02287 7.55826 7.47545 7.23302 7.82726 6.82263C8.29009 6.28112 8.59238 5.64085 8.82294 4.97333H7.99976C8.1176 5.32071 8.30888 5.65107 8.51553 5.95247C9.01763 6.6847 9.67174 7.29772 10.4215 7.77623C11.0141 8.15426 11.6682 8.43864 12.3394 8.64979C12.5392 8.7128 12.8312 8.57486 12.8654 8.35179C12.9064 8.06741 12.9354 7.78474 12.9371 7.49696C12.9423 6.94864 12.0883 6.94864 12.0832 7.49696L12.0798 7.49866Z" fill="#0F0A54"/>
<path d="M8.19092 13.5625C8.18921 13.6221 8.20287 13.4876 8.20117 13.4944C8.20117 13.5029 8.19775 13.5148 8.19433 13.5234C8.19263 13.5285 8.24728 13.4127 8.21824 13.4638C8.21654 13.4689 8.20458 13.491 8.20117 13.491C8.19433 13.491 8.28143 13.4008 8.23703 13.445C8.2302 13.4501 8.22507 13.4569 8.21824 13.4638C8.2097 13.4723 8.19946 13.4791 8.19092 13.4876C8.15847 13.52 8.28143 13.428 8.22337 13.4621C8.19946 13.4757 8.17726 13.491 8.15335 13.5029C8.14822 13.5046 8.11406 13.5217 8.11406 13.5217C8.11406 13.5182 8.21995 13.4825 8.15335 13.5046C8.09186 13.5251 8.02867 13.5438 7.96548 13.5557C7.95353 13.5574 7.9262 13.5591 7.91425 13.5642C7.92279 13.5608 8.02184 13.554 7.9467 13.5591C7.90912 13.5608 7.87326 13.5642 7.83569 13.5659C7.80324 13.5659 7.77079 13.5659 7.73663 13.5659C7.71784 13.5659 7.70077 13.5642 7.68198 13.5625C7.60854 13.5557 7.67173 13.5523 7.70077 13.5676C7.64953 13.5438 7.57268 13.5438 7.51632 13.5268C7.50095 13.5217 7.39506 13.4808 7.4685 13.5131C7.54194 13.5455 7.43947 13.4978 7.42239 13.4876C7.37798 13.4621 7.34724 13.4127 7.42751 13.4995C7.41385 13.4842 7.39677 13.4706 7.3814 13.4569C7.31992 13.4008 7.44117 13.5421 7.39848 13.4774C7.38823 13.4621 7.37286 13.4212 7.4036 13.4927C7.43434 13.5642 7.41556 13.52 7.41214 13.4995C7.41214 13.4927 7.4258 13.6272 7.42239 13.5676C7.42239 13.5336 7.44288 13.4978 7.41214 13.6357C7.42922 13.5591 7.37798 13.6936 7.39165 13.6732C7.39677 13.6647 7.4036 13.6545 7.40702 13.646C7.4241 13.6034 7.33529 13.7243 7.36945 13.6919C7.37628 13.6868 7.42068 13.6323 7.4258 13.6374C7.43093 13.6409 7.32846 13.7022 7.38652 13.6698C7.39848 13.663 7.40873 13.6562 7.42068 13.6494C7.44288 13.6374 7.46508 13.6272 7.48558 13.6153C7.53169 13.5915 7.39506 13.6494 7.4463 13.6323C7.46167 13.6272 7.47533 13.6221 7.4907 13.617C7.52486 13.6051 7.56072 13.5966 7.59659 13.5881C7.62562 13.5813 7.65465 13.5761 7.6854 13.571C7.74175 13.5608 7.59488 13.5796 7.65124 13.5761C7.67003 13.5761 7.6871 13.5727 7.70589 13.571C7.78445 13.5659 7.86301 13.5693 7.94157 13.5744C7.95524 13.5744 8.00306 13.583 7.93816 13.5744C7.86472 13.5642 7.94328 13.5744 7.95865 13.5796C7.99964 13.5881 8.04063 13.5966 8.07991 13.6085C8.10894 13.617 8.13968 13.6323 8.16872 13.6392C8.08162 13.6221 8.09528 13.6051 8.12773 13.6221C8.1431 13.6306 8.15847 13.6374 8.17384 13.646C8.18579 13.6528 8.19604 13.6596 8.208 13.6664C8.27802 13.7073 8.17384 13.6409 8.17726 13.6392C8.18238 13.6357 8.2302 13.6902 8.23361 13.6936C8.26777 13.726 8.17896 13.6051 8.19604 13.6477C8.19604 13.6494 8.21483 13.6817 8.21483 13.6817C8.21483 13.6817 8.17042 13.5727 8.1875 13.6238C8.208 13.6834 8.17726 13.5029 8.18067 13.5693C8.1875 13.7907 8.37024 14.0036 8.60592 13.9933C8.84161 13.9831 9.03801 13.8077 9.03118 13.5693C9.01581 13.1198 8.60422 12.8439 8.19604 12.7639C7.78787 12.6839 7.29088 12.706 6.93907 12.9512C6.75291 13.0823 6.61116 13.2526 6.58042 13.4842C6.54968 13.7158 6.63507 13.9218 6.79561 14.0751C7.09448 14.3595 7.56585 14.4497 7.96548 14.4088C8.44197 14.3595 9.01068 14.1245 9.02947 13.5693C9.0363 13.348 8.82965 13.1368 8.60422 13.1453C8.36853 13.1555 8.1875 13.3309 8.17896 13.5693L8.19092 13.5625Z" fill="#0F0A54"/>
<path d="M8.86373 13.9814C9.34534 13.9354 9.82525 13.8333 10.2881 13.6987C11.1471 13.4467 12.0062 13.0517 12.6347 12.3995C13.0087 12.0095 12.416 11.4169 12.0403 11.8069C11.4989 12.3688 10.7765 12.6873 10.0268 12.9018C9.73815 12.9853 9.4444 13.0517 9.14723 13.1028C9.09429 13.1113 9.04135 13.1198 8.9867 13.1283C8.96449 13.1317 8.94229 13.1334 8.92009 13.1385C8.87569 13.147 9.04989 13.1232 8.96108 13.1334C8.92863 13.1368 8.89447 13.1419 8.86202 13.1453C8.63659 13.1675 8.44189 13.3224 8.44189 13.5642C8.44189 13.7737 8.63488 14.0053 8.86202 13.9831L8.86373 13.9814Z" fill="#0F0A54"/>
</svg>
