<svg width="28" height="24" viewBox="0 0 28 24" fill="none" xmlns="http://www.w3.org/2000/svg">
<path d="M19.8517 0H7.71239C6.76814 0 6 0.768187 6 1.71239V22.2876C6 23.2318 6.76819 24 7.71239 24H19.8518C20.796 24 21.5642 23.2318 21.5642 22.2876V17.2267C21.5642 17.0196 21.3963 16.8517 21.1892 16.8517C20.9821 16.8517 20.8142 17.0196 20.8142 17.2267V19.3408H6.75V4.86511H20.8141V6.76416C20.8141 6.97125 20.982 7.13916 21.1891 7.13916C21.3962 7.13916 21.5641 6.97125 21.5641 6.76416V1.71239C21.5641 0.768187 20.796 0 19.8517 0ZM20.8141 20.0908V22.2876C20.8141 22.8182 20.3824 23.25 19.8517 23.25H7.71239C7.18172 23.25 6.75 22.8182 6.75 22.2876V20.0908H20.8141ZM6.75 4.11511V1.71239C6.75 1.18172 7.18172 0.75 7.71239 0.75H19.8518C20.3825 0.75 20.8142 1.18172 20.8142 1.71239V4.11511H6.75ZM16.6261 2.43253C16.6261 2.63963 16.4582 2.80753 16.2511 2.80753H11.313C11.1059 2.80753 10.938 2.63963 10.938 2.43253C10.938 2.22544 11.1059 2.05753 11.313 2.05753H16.2511C16.4582 2.05753 16.6261 2.22544 16.6261 2.43253ZM12.0425 21.6704C12.0425 21.4633 12.2104 21.2954 12.4175 21.2954H15.1467C15.3538 21.2954 15.5217 21.4633 15.5217 21.6704C15.5217 21.8775 15.3538 22.0454 15.1467 22.0454H12.4175C12.2104 22.0454 12.0425 21.8775 12.0425 21.6704ZM9.23264 11.8975C9.23264 14.4061 11.2735 16.447 13.7821 16.447C16.2907 16.447 18.3315 14.4061 18.3315 11.8975C18.3315 9.38892 16.2907 7.34808 13.7821 7.34808C11.2735 7.34808 9.23264 9.38897 9.23264 11.8975ZM17.5815 11.8975C17.5815 13.9925 15.8771 15.697 13.782 15.697C11.687 15.697 9.98259 13.9926 9.98259 11.8975C9.98259 9.8025 11.687 8.09808 13.782 8.09808C15.8771 8.09808 17.5815 9.8025 17.5815 11.8975ZM13.782 9.30483C13.9891 9.30483 14.157 9.47273 14.157 9.67983V9.81314C14.6683 9.97308 15.0403 10.4511 15.0403 11.0143C15.0403 11.2214 14.8724 11.3893 14.6653 11.3893C14.4582 11.3893 14.2903 11.2214 14.2903 11.0143C14.2903 10.734 14.0623 10.506 13.782 10.506C13.5018 10.506 13.2738 10.734 13.2738 11.0143C13.2738 11.2946 13.5018 11.5226 13.782 11.5226C14.4758 11.5226 15.0403 12.087 15.0403 12.7808C15.0403 13.3441 14.6683 13.822 14.157 13.982V14.1153C14.157 14.3224 13.9891 14.4903 13.782 14.4903C13.575 14.4903 13.407 14.3224 13.407 14.1153V13.982C12.8958 13.822 12.5238 13.3441 12.5238 12.7808C12.5238 12.5737 12.6917 12.4058 12.8988 12.4058C13.1059 12.4058 13.2738 12.5737 13.2738 12.7808C13.2738 13.0611 13.5018 13.2891 13.782 13.2891C14.0623 13.2891 14.2903 13.0611 14.2903 12.7808C14.2903 12.5006 14.0623 12.2726 13.782 12.2726C13.0882 12.2726 12.5238 11.7081 12.5238 11.0143C12.5238 10.4511 12.8958 9.97308 13.407 9.81314V9.67983C13.407 9.47273 13.575 9.30483 13.782 9.30483ZM19.7158 9.98522H24.5151L23.5155 8.98561C23.3691 8.83917 23.3691 8.60175 23.5155 8.45531C23.6619 8.30888 23.8994 8.30888 24.0458 8.45531L25.6856 10.095C25.832 10.2415 25.832 10.4789 25.6856 10.6254L24.0458 12.2652C23.9726 12.3384 23.8766 12.375 23.7806 12.375C23.6847 12.375 23.5887 12.3384 23.5155 12.2652C23.369 12.1187 23.369 11.8813 23.5155 11.7348L24.5151 10.7352H19.7158C19.5087 10.7352 19.3408 10.5673 19.3408 10.3602C19.3408 10.1531 19.5087 9.98522 19.7158 9.98522ZM25.4204 14.0148H20.6212L21.6208 15.0143C21.7672 15.1608 21.7672 15.3982 21.6208 15.5447C21.5475 15.6179 21.4516 15.6545 21.3556 15.6545C21.2596 15.6545 21.1636 15.6179 21.0904 15.5447L19.4506 13.905C19.3803 13.8346 19.3408 13.7392 19.3408 13.6398C19.3408 13.5403 19.3803 13.445 19.4506 13.3746L21.0904 11.7349C21.2369 11.5885 21.4743 11.5885 21.6207 11.7349C21.7672 11.8814 21.7672 12.1187 21.6207 12.2652L20.6211 13.2648H25.4204C25.6275 13.2648 25.7954 13.4327 25.7954 13.6398C25.7954 13.8469 25.6275 14.0148 25.4204 14.0148Z" fill="#0F0A54"/>
</svg>
