<svg width="32" height="32" viewBox="0 0 32 32" fill="none" xmlns="http://www.w3.org/2000/svg">
<path d="M29.6246 32H24.1452C23.8482 32 23.6074 31.7592 23.6074 31.4622C23.6074 31.1652 23.8482 30.9244 24.1452 30.9244H29.6246C30.3414 30.9244 30.9245 30.3413 30.9245 29.6245V24.1451C30.9245 23.8481 31.1653 23.6073 31.4623 23.6073C31.7594 23.6073 32.0001 23.8481 32.0001 24.1451V29.6245C32.0001 30.9344 30.9345 32 29.6246 32Z" fill="#0F0A54"/>
<path d="M31.4623 8.39271C31.1653 8.39271 30.9245 8.15193 30.9245 7.8549V2.3755C30.9245 1.65876 30.3414 1.07563 29.6246 1.07563H24.1452C23.8482 1.07563 23.6074 0.83485 23.6074 0.537815C23.6074 0.24078 23.8482 0 24.1452 0H29.6246C30.9345 0 32.0001 1.06565 32.0001 2.3755V7.8549C32.0001 8.15193 31.7594 8.39271 31.4623 8.39271Z" fill="#0F0A54"/>
<path d="M0.537815 8.39271C0.24078 8.39271 0 8.15193 0 7.8549V2.3755C0 1.06565 1.06565 0 2.3755 0H7.8549C8.15193 0 8.39271 0.24078 8.39271 0.537815C8.39271 0.83485 8.15193 1.07563 7.8549 1.07563H2.3755C1.65876 1.07563 1.07563 1.65876 1.07563 2.3755V7.8549C1.07563 8.15193 0.83485 8.39271 0.537815 8.39271Z" fill="#0F0A54"/>
<path d="M7.8549 32H2.3755C1.06565 32 0 30.9344 0 29.6245V24.1451C0 23.8481 0.24078 23.6073 0.537815 23.6073C0.83485 23.6073 1.07563 23.8481 1.07563 24.1451V29.6245C1.07563 30.3413 1.65876 30.9244 2.3755 30.9244H7.8549C8.15193 30.9244 8.39271 31.1652 8.39271 31.4622C8.39271 31.7592 8.1519 32 7.8549 32Z" fill="#0F0A54"/>
<path d="M5.45874 12.4863H12.4862V5.45886H5.45874V12.4863ZM6.33352 6.33365H11.6114V11.6115H6.33352V6.33365Z" fill="#0F0A54"/>
<path d="M10.5179 7.42712H7.427V10.518H10.5179V7.42712Z" fill="#0F0A54"/>
<path d="M12.4862 19.5137H5.45874V26.5412H12.4862V19.5137ZM11.6114 25.6664H6.33352V20.3885H11.6114V25.6664Z" fill="#0F0A54"/>
<path d="M10.5179 21.482H7.427V24.5729H10.5179V21.482Z" fill="#0F0A54"/>
<path d="M26.5411 5.45886H19.5137V12.4863H26.5411V5.45886ZM25.6663 11.6115H20.3885V6.33365H25.6663V11.6115Z" fill="#0F0A54"/>
<path d="M24.5728 7.42712H21.4819V10.518H24.5728V7.42712Z" fill="#0F0A54"/>
<path d="M14.4941 7.46667H13.4902V8.47059H14.4941V7.46667Z" fill="#0F0A54"/>
<path d="M16.502 7.46667H15.498V8.47059H16.502V7.46667Z" fill="#0F0A54"/>
<path d="M16.502 5.45886H15.498V6.46277H16.502V5.45886Z" fill="#0F0A54"/>
<path d="M18.5098 6.46277V5.45886H17.5059V6.46277V7.46671H18.5098V6.46277Z" fill="#0F0A54"/>
<path d="M18.5098 11.4824H17.5059V12.4863H18.5098V11.4824Z" fill="#0F0A54"/>
<path d="M22.5254 19.5138H23.5293V18.5098V17.5059H22.5254V18.5098V19.5138Z" fill="#0F0A54"/>
<path d="M26.5411 22.5255V21.5216V20.5177V19.5138V18.5098H25.5371V17.5059H24.5332V18.5098V19.5138V20.5177V21.5216V22.5255V23.5294H25.5371V22.5255H26.5411Z" fill="#0F0A54"/>
<path d="M24.5332 23.5294H23.5293V24.5333H24.5332V23.5294Z" fill="#0F0A54"/>
<path d="M26.541 23.5294H25.5371V24.5333H26.541V23.5294Z" fill="#0F0A54"/>
<path d="M24.5332 25.5373V26.5412H25.5371H26.5411V25.5373H25.5371V24.5333H24.5332V25.5373Z" fill="#0F0A54"/>
<path d="M20.5177 24.5334H21.5216H22.5255V23.5294V22.5255H21.5216V21.5216H22.5255V20.5177V19.5138H21.5216V20.5177H20.5177H19.5138V21.5216V22.5255H20.5177V23.5294H19.5138V22.5255H18.5098V23.5294V24.5334H17.5059V23.5294V22.5255H16.502V23.5294V24.5334H15.4981V25.5373H14.4941V24.5334H15.4981V23.5294V22.5255V21.5216H14.4941V20.5177V19.5138H15.4981H16.502V18.5098H15.4981H14.4941H13.4902V19.5138V20.5177V21.5216V22.5255H14.4941V23.5294H13.4902V24.5334V25.5373V26.5412H14.4941H15.4981H16.502H17.5059V25.5373H18.5098V26.5412H19.5138H20.5177V25.5373H19.5138V24.5334H20.5177Z" fill="#0F0A54"/>
<path d="M23.5293 21.5215H22.5254V22.5255H23.5293V21.5215Z" fill="#0F0A54"/>
<path d="M24.5332 13.4902H23.5293V14.4941H24.5332V13.4902Z" fill="#0F0A54"/>
<path d="M24.5332 16.5019H25.5372H26.5411V15.498V14.4941H25.5372H24.5332V15.498H23.5293V14.4941H22.5254V15.498V16.5019H23.5293H24.5332Z" fill="#0F0A54"/>
<path d="M15.4981 12.4863V13.4902V14.4941H16.502V13.4902V12.4863V11.4823H17.5059V10.4784H18.5098V9.47449V8.47058H17.5059V9.47449H16.502V10.4784H15.4981V9.47449H14.4941V10.4784V11.4823H15.4981V12.4863Z" fill="#0F0A54"/>
<path d="M10.4785 17.5059V18.5098H11.4824H12.4863V17.5059H11.4824V16.502H10.4785V17.5059Z" fill="#0F0A54"/>
<path d="M12.4863 15.498H11.4824V16.5019H12.4863V15.498Z" fill="#0F0A54"/>
<path d="M9.47442 15.498V14.4941H8.4705V13.4902H7.46659H6.46265H5.45874V14.4941V15.498V16.5019V17.5058V18.5098H6.46265V17.5058H7.46659H8.4705V16.5019H7.46659V15.498H8.4705V16.5019H9.47442H10.4784V15.498H9.47442Z" fill="#0F0A54"/>
<path d="M9.47462 17.5059H8.4707V18.5098H9.47462V17.5059Z" fill="#0F0A54"/>
<path d="M17.506 17.5059H18.5099V18.5098H19.5138V19.5137H20.5177H21.5216V18.5098V17.5059H22.5256V16.502H21.5216V15.4981V14.4941H20.5177V15.498H19.5138V14.4941H20.5177V13.4902H19.5138H18.5099H17.506V14.4941H18.5099V15.498V16.502H17.506V15.498V14.4941H16.5021V15.498H15.4981H14.4942V14.4941V13.4902V12.4863V11.4824H13.4903V12.4863V13.4902H12.4864H11.4824H10.4785H9.47461V14.4941H10.4785V15.498H11.4824V14.4941H12.4863H13.4903V15.498V16.502V17.5059H14.4942H15.4981H16.502V18.5098H17.506V17.5059ZM19.5138 16.502H20.5177V17.5059H19.5138V16.502Z" fill="#0F0A54"/>
<path d="M18.5098 19.5137H17.5059V20.5176H18.5098V19.5137Z" fill="#0F0A54"/>
<path d="M18.5098 21.5215H17.5059V22.5255H18.5098V21.5215Z" fill="#0F0A54"/>
<path d="M16.502 20.5176H15.498V21.5216H16.502V20.5176Z" fill="#0F0A54"/>
</svg>
