<svg width="32" height="31" viewBox="0 0 32 31" fill="none" xmlns="http://www.w3.org/2000/svg">
<path d="M4.81398 18.3278V17.0328C2.58552 15.7556 1.18154 13.4416 1.18154 10.9142C1.18154 6.99957 4.51678 3.79294 8.58846 3.79294H29.0716V3.79299C29.405 3.79299 29.5768 4.18348 29.3385 4.41254L28.2278 5.48039C27.9972 5.70214 27.9972 6.06184 28.2278 6.28358C28.4585 6.50531 28.8326 6.50531 29.0632 6.28358L31.821 3.63213L31.8217 3.63285L31.8821 3.56626C31.8892 3.55717 31.8829 3.56557 31.8826 3.56611L31.8851 3.56287L31.8856 3.56321L31.9001 3.54238L31.9004 3.54261L31.9032 3.53868H31.9032L31.9182 3.51426L31.9184 3.51436L31.9208 3.51033L31.921 3.51043L31.9235 3.50638L31.9236 3.50645L31.926 3.5024L31.9262 3.50247L31.939 3.47705L31.9396 3.47733C32.092 3.18094 31.9039 2.90965 31.9364 2.96674L31.9365 2.96669L31.932 2.95862L31.9326 2.95837L31.9142 2.92937L31.9144 2.92925L31.9085 2.92026L31.909 2.91998L31.8954 2.90105L31.8957 2.90084L31.8858 2.88857L31.8861 2.88836L31.8823 2.88346L31.8754 2.8748L31.8755 2.87468L31.8208 2.81764L29.0633 0.16629C28.8326 -0.0554301 28.4585 -0.0554301 28.2278 0.16629C27.9972 0.388011 27.9972 0.747735 28.2278 0.969482L29.336 2.03487C29.5769 2.26426 29.4074 2.65694 29.0716 2.65694H8.58849C3.86268 2.65694 0 6.37067 0 10.9142C0 13.1291 0.919809 15.2056 2.5224 16.7464C3.19477 17.3928 3.96338 17.9246 4.81398 18.3278Z" fill="#0F0A54"/>
<path d="M28.4215 12.14V13.6659C29.2189 14.4046 29.834 15.2731 30.2547 16.2845C31.4068 19.0543 30.7594 22.2252 28.6423 24.3434C27.2636 25.7229 25.3938 26.5208 23.4117 26.5208H2.92873V26.5207C2.59531 26.5207 2.42357 26.1144 2.66182 25.876L3.77249 24.7647C4.00313 24.534 4.00313 24.1597 3.77249 23.9289C3.54185 23.6982 3.16773 23.6982 2.93709 23.9289L0.179346 26.6881L0.178599 26.6874L0.100205 26.7815L0.0999385 26.7813L0.0971874 26.7854H0.0971605L0.0822032 26.8108L0.0819896 26.8107L0.0795052 26.8149L0.0793185 26.8148L0.0768609 26.819L0.0767012 26.8189L0.0742974 26.8231L0.0741637 26.823L0.0723208 26.8267C0.0750184 26.822 0.0767807 26.8191 0.0710916 26.8296L0.0709318 26.8294L0.0638534 26.8431L0.0637735 26.843C-0.0204955 27.0138 -0.022232 27.2101 0.0644142 27.3803C0.0785436 27.408 0.0744038 27.4008 0.0680202 27.3891L0.0677529 27.3892L0.0861027 27.4194L0.0858891 27.4195L0.0917653 27.4289L0.0912844 27.4292L0.10488 27.4489L0.104559 27.4491L0.107417 27.4532L0.107177 27.4534L0.114469 27.4619L0.114388 27.4619L0.118208 27.467L0.117967 27.4671L0.124858 27.4762L0.124671 27.4763L0.1794 27.5357L2.93704 30.2947C3.16765 30.5254 3.5418 30.5254 3.77241 30.2947C4.00305 30.064 4.00305 29.6896 3.77241 29.4589L2.66431 28.3502C2.42341 28.1115 2.59283 27.7029 2.92865 27.7029H23.4116C28.1373 27.7029 32 23.8383 32 19.1101C32.0001 16.3173 30.6485 13.7544 28.4215 12.14Z" fill="#0F0A54"/>
<path d="M26.8818 12.0218H6.32886V15.2452H26.8818V12.0218Z" fill="#52DAC6"/>
<path d="M25.8352 21.1353H12.819C11.003 21.1353 9.18939 21.145 7.37339 21.1353C7.10562 21.1353 6.906 21.0326 6.88409 20.7442C6.86949 20.5365 6.88409 20.319 6.88409 20.1113V12.3202C6.88409 11.5895 6.83054 10.8368 6.88409 10.1085C6.92304 9.58556 7.59491 9.71264 8.00875 9.71264H25.4823C25.5991 9.71264 25.7184 9.70286 25.8352 9.71264C26.1809 9.73952 26.2223 10.001 26.2223 10.3041V13.2562C26.2223 15.6854 26.2223 18.1146 26.2223 20.5438C26.2223 20.8396 26.1833 21.1206 25.8352 21.1353C25.0538 21.167 25.0514 22.389 25.8352 22.3572C26.7627 22.3205 27.4297 21.6094 27.4394 20.6831C27.4419 20.3728 27.4394 20.0624 27.4394 19.752V11.6091C27.4394 10.7366 27.6293 9.55867 26.9136 8.91349C26.3416 8.39784 25.5821 8.49315 24.8761 8.49315H21.7918C18.856 8.49315 15.9227 8.49315 12.9869 8.49315C11.1101 8.49315 9.23321 8.47849 7.35392 8.49315C6.67961 8.49804 6.0686 8.83773 5.79839 9.47803C5.6572 9.81772 5.66937 10.1574 5.66937 10.5142V13.9503C5.66937 15.4264 5.66937 16.9025 5.66937 18.3786C5.66937 19.8547 5.64259 19.9524 5.66937 20.7369C5.69858 21.6436 6.38019 22.3303 7.28576 22.3572C7.44399 22.3621 7.60465 22.3572 7.76532 22.3572H10.4285C13.3034 22.3572 16.1759 22.3572 19.0508 22.3572H25.8377C26.6215 22.3572 26.6215 21.1353 25.8377 21.1353H25.8352Z" fill="#0F0A54"/>
<path d="M26.8282 14.6343H6.27777L6.88635 15.2453V12.0219L6.27777 12.6328H26.8282L26.2197 12.0219V15.2453C26.2197 16.0322 27.4368 16.0322 27.4368 15.2453V12.0219C27.4368 11.6919 27.1569 11.4109 26.8282 11.4109H6.27777C5.9467 11.4109 5.66919 11.6919 5.66919 12.0219V15.2453C5.66919 15.5752 5.94914 15.8563 6.27777 15.8563H26.8282C27.6121 15.8563 27.6121 14.6343 26.8282 14.6343Z" fill="#0F0A54"/>
<path d="M19.4182 18.8353H23.9095C24.6934 18.8353 24.6934 17.6133 23.9095 17.6133H19.4182C18.6344 17.6133 18.6344 18.8353 19.4182 18.8353Z" fill="#0F0A54"/>
</svg>
