<svg width="23" height="23" viewBox="0 0 23 23" fill="none" xmlns="http://www.w3.org/2000/svg">
<path d="M21.2926 23H17.3543C17.1408 23 16.9678 22.827 16.9678 22.6135C16.9678 22.4 17.1408 22.2269 17.3543 22.2269H21.2926C21.8078 22.2269 22.2269 21.8078 22.2269 21.2926V17.3543C22.2269 17.1408 22.4 16.9678 22.6135 16.9678C22.827 16.9678 23 17.1408 23 17.3543V21.2926C23 22.2341 22.2341 23 21.2926 23Z" fill="#0F0A54"/>
<path d="M22.6135 6.03226C22.4 6.03226 22.2269 5.8592 22.2269 5.64571V1.70739C22.2269 1.19223 21.8078 0.773109 21.2926 0.773109H17.3543C17.1408 0.773109 16.9678 0.600049 16.9678 0.386555C16.9678 0.17306 17.1408 0 17.3543 0H21.2926C22.2341 0 23 0.765938 23 1.70739V5.64571C23 5.8592 22.827 6.03226 22.6135 6.03226Z" fill="#0F0A54"/>
<path d="M0.386555 6.03226C0.17306 6.03226 0 5.8592 0 5.64571V1.70739C0 0.765938 0.765938 0 1.70739 0H5.64571C5.8592 0 6.03226 0.17306 6.03226 0.386555C6.03226 0.600049 5.8592 0.773109 5.64571 0.773109H1.70739C1.19223 0.773109 0.773109 1.19223 0.773109 1.70739V5.64571C0.773109 5.8592 0.600049 6.03226 0.386555 6.03226Z" fill="#0F0A54"/>
<path d="M5.64571 23H1.70739C0.765938 23 0 22.2341 0 21.2926V17.3543C0 17.1408 0.17306 16.9678 0.386555 16.9678C0.600049 16.9678 0.773109 17.1408 0.773109 17.3543V21.2926C0.773109 21.8078 1.19223 22.2269 1.70739 22.2269H5.64571C5.8592 22.2269 6.03226 22.4 6.03226 22.6135C6.03226 22.827 5.85918 23 5.64571 23Z" fill="#0F0A54"/>
<path d="M3.92358 8.97456H8.97456V3.92358H3.92358V8.97456ZM4.55233 4.55233H8.34581V8.34581H4.55233V4.55233Z" fill="#0F0A54"/>
<path d="M7.55972 5.33826H5.33813V7.55984H7.55972V5.33826Z" fill="#0F0A54"/>
<path d="M8.97456 14.0255H3.92358V19.0765H8.97456V14.0255ZM8.34581 18.4477H4.55233V14.6543H8.34581V18.4477Z" fill="#0F0A54"/>
<path d="M7.55972 15.4402H5.33813V17.6618H7.55972V15.4402Z" fill="#0F0A54"/>
<path d="M19.0764 3.92358H14.0254V8.97456H19.0764V3.92358ZM18.4476 8.34581H14.6541V4.55233H18.4476V8.34581Z" fill="#0F0A54"/>
<path d="M17.6618 5.33826H15.4402V7.55984H17.6618V5.33826Z" fill="#0F0A54"/>
<path d="M10.4176 5.3667H9.69604V6.08826H10.4176V5.3667Z" fill="#0F0A54"/>
<path d="M11.8607 5.3667H11.1392V6.08826H11.8607V5.3667Z" fill="#0F0A54"/>
<path d="M11.8607 3.92358H11.1392V4.64515H11.8607V3.92358Z" fill="#0F0A54"/>
<path d="M13.3038 4.64515V3.92358H12.5823V4.64515V5.36673H13.3038V4.64515Z" fill="#0F0A54"/>
<path d="M13.3038 8.25293H12.5823V8.97449H13.3038V8.25293Z" fill="#0F0A54"/>
<path d="M16.1902 14.0255H16.9117V13.304V12.5824H16.1902V13.304V14.0255Z" fill="#0F0A54"/>
<path d="M19.0764 16.1902V15.4687V14.7471V14.0255V13.304H18.3549V12.5824H17.6333V13.304V14.0255V14.7471V15.4687V16.1902V16.9118H18.3549V16.1902H19.0764Z" fill="#0F0A54"/>
<path d="M17.6332 16.9117H16.9116V17.6333H17.6332V16.9117Z" fill="#0F0A54"/>
<path d="M19.0763 16.9117H18.3547V17.6333H19.0763V16.9117Z" fill="#0F0A54"/>
<path d="M17.6333 18.3549V19.0764H18.3549H19.0764V18.3549H18.3549V17.6333H17.6333V18.3549Z" fill="#0F0A54"/>
<path d="M14.747 17.6334H15.4686H16.1902V16.9118V16.1902H15.4686V15.4687H16.1902V14.7471V14.0255H15.4686V14.7471H14.747H14.0255V15.4687V16.1902H14.747V16.9118H14.0255V16.1902H13.3039V16.9118V17.6334H12.5823V16.9118V16.1902H11.8608V16.9118V17.6334H11.1392V18.3549H10.4176V17.6334H11.1392V16.9118V16.1902V15.4687H10.4176V14.7471V14.0255H11.1392H11.8608V13.304H11.1392H10.4176H9.69604V14.0255V14.7471V15.4687V16.1902H10.4176V16.9118H9.69604V17.6334V18.3549V19.0765H10.4176H11.1392H11.8608H12.5823V18.3549H13.3039V19.0765H14.0255H14.747V18.3549H14.0255V17.6334H14.747Z" fill="#0F0A54"/>
<path d="M16.9117 15.4686H16.1902V16.1902H16.9117V15.4686Z" fill="#0F0A54"/>
<path d="M17.6332 9.69604H16.9116V10.4176H17.6332V9.69604Z" fill="#0F0A54"/>
<path d="M17.6333 11.8607H18.3549H19.0765V11.1392V10.4176H18.3549H17.6333V11.1392H16.9117V10.4176H16.1902V11.1392V11.8607H16.9117H17.6333Z" fill="#0F0A54"/>
<path d="M11.1393 8.97452V9.69611V10.4177H11.8609V9.69611V8.97452V8.25296H12.5824V7.5314H13.304V6.80982V6.08826H12.5824V6.80982H11.8609V7.5314H11.1393V6.80982H10.4177V7.5314V8.25296H11.1393V8.97452Z" fill="#0F0A54"/>
<path d="M7.53149 12.5823V13.3039H8.25306H8.97462V12.5823H8.25306V11.8608H7.53149V12.5823Z" fill="#0F0A54"/>
<path d="M8.97449 11.1392H8.25293V11.8607H8.97449V11.1392Z" fill="#0F0A54"/>
<path d="M6.80985 11.1392V10.4176H6.08829V9.69604H5.36673H4.64515H3.92358V10.4176V11.1392V11.8608V12.5823V13.3039H4.64515V12.5823H5.36673H6.08829V11.8608H5.36673V11.1392H6.08829V11.8608H6.80985H7.53143V11.1392H6.80985Z" fill="#0F0A54"/>
<path d="M6.80994 12.5824H6.08838V13.304H6.80994V12.5824Z" fill="#0F0A54"/>
<path d="M12.5823 12.5823H13.3039V13.3039H14.0255V14.0255H14.7471H15.4686V13.3039V12.5823H16.1902V11.8608H15.4686V11.1392V10.4176H14.7471V11.1392H14.0255V10.4176H14.7471V9.69607H14.0255H13.3039H12.5823V10.4176H13.3039V11.1392V11.8608H12.5823V11.1392V10.4176H11.8608V11.1392H11.1392H10.4176V10.4176V9.69607V8.97451V8.25293H9.69608V8.97449V9.69605H8.97452H8.25294H7.53138H6.80981V10.4176H7.53138V11.1392H8.25294V10.4176H8.9745H9.69606V11.1392V11.8608V12.5823H10.4176H11.1392H11.8608V13.3039H12.5823V12.5823ZM14.0255 11.8608H14.7471V12.5823H14.0255V11.8608Z" fill="#0F0A54"/>
<path d="M13.3038 14.0255H12.5823V14.7471H13.3038V14.0255Z" fill="#0F0A54"/>
<path d="M13.3038 15.4686H12.5823V16.1902H13.3038V15.4686Z" fill="#0F0A54"/>
<path d="M11.8607 14.7471H11.1392V15.4686H11.8607V14.7471Z" fill="#0F0A54"/>
</svg>
