<svg width="15" height="17" viewBox="0 0 15 17" fill="none" xmlns="http://www.w3.org/2000/svg">
<rect x="0.000244141" y="4.20499" width="12" height="12" rx="2" fill="#0F0A54"/>
<rect x="2.00024" y="2.20499" width="12" height="12" rx="3" fill="white"/>
<path d="M11.7501 14.4907H4.55809C3.14769 14.4907 2.00024 13.3478 2.00024 11.9431V2.75261C2.00024 1.34784 3.14769 0.204987 4.55809 0.204987H10.2953C10.3875 0.204987 10.4729 0.242402 10.5378 0.303626L14.2055 3.95669C14.2704 4.02131 14.3045 4.10635 14.3045 4.19818V11.9431C14.3079 13.3478 13.1605 14.4907 11.7501 14.4907ZM4.55809 0.885259C3.52334 0.885259 2.68325 1.72199 2.68325 2.75261V11.9465C2.68325 12.9771 3.52334 13.8138 4.55809 13.8138H11.7501C12.7848 13.8138 13.6249 12.9771 13.6249 11.9465V4.34104L10.1553 0.885259H4.55809Z" fill="#0F0A54"/>
<path d="M13.9665 4.53832H11.4052C10.6061 4.53832 9.95728 3.89206 9.95728 3.09614V0.545123C9.95728 0.358048 10.111 0.204987 10.2988 0.204987C10.4866 0.204987 10.6403 0.358048 10.6403 0.545123V3.09614C10.6403 3.51791 10.9852 3.85805 11.4052 3.85805H13.9665C14.1543 3.85805 14.308 4.01111 14.308 4.19818C14.308 4.38526 14.1543 4.53832 13.9665 4.53832Z" fill="#0F0A54"/>
<path d="M7.68287 5.42608H4.93037C4.74254 5.42608 4.58887 5.27301 4.58887 5.08594C4.58887 4.89887 4.74254 4.7458 4.93037 4.7458H7.68287C7.87069 4.7458 8.02437 4.89887 8.02437 5.08594C8.02437 5.27301 7.87411 5.42608 7.68287 5.42608Z" fill="#52DAC6"/>
<path d="M9.53039 7.68798H4.93379C4.74596 7.68798 4.59229 7.53492 4.59229 7.34784C4.59229 7.16077 4.74596 7.00771 4.93379 7.00771H9.53039C9.71821 7.00771 9.87189 7.16077 9.87189 7.34784C9.87189 7.53492 9.71821 7.68798 9.53039 7.68798Z" fill="#52DAC6"/>
<path d="M11.3745 9.94989H4.93379C4.74596 9.94989 4.59229 9.79683 4.59229 9.60975C4.59229 9.42268 4.74596 9.26962 4.93379 9.26962H11.3779C11.5657 9.26962 11.7194 9.42268 11.7194 9.60975C11.7194 9.79683 11.5657 9.94989 11.3745 9.94989Z" fill="#52DAC6"/>
</svg>
