<svg width="32" height="32" viewBox="0 0 32 32" fill="none" xmlns="http://www.w3.org/2000/svg">
<rect y="6.10352e-05" width="32" height="32" rx="5" fill="white"/>
<path d="M25.4704 16.2441H6.61597V19.2011H25.4704V16.2441Z" fill="#52DAC6"/>
<path d="M24.5102 24.6044H12.5696C10.9037 24.6044 9.24004 24.6134 7.57412 24.6044C7.32847 24.6044 7.14535 24.5103 7.12525 24.2457C7.11186 24.0552 7.12525 23.8556 7.12525 23.6651V16.5179C7.12525 15.8476 7.07613 15.1571 7.12525 14.489C7.16098 14.0092 7.77733 14.1258 8.15696 14.1258H24.1864C24.2936 14.1258 24.4031 14.1168 24.5102 14.1258C24.8274 14.1504 24.8653 14.3903 24.8653 14.6683V17.3765C24.8653 19.605 24.8653 21.8334 24.8653 24.0619C24.8653 24.3332 24.8296 24.591 24.5102 24.6044C23.7934 24.6336 23.7912 25.7545 24.5102 25.7254C25.3611 25.6917 25.973 25.0394 25.9819 24.1897C25.9841 23.905 25.9819 23.6202 25.9819 23.3355V15.8655C25.9819 15.0651 26.1561 13.9845 25.4995 13.3927C24.9747 12.9196 24.278 13.0071 23.6304 13.0071H20.801C18.1078 13.0071 15.4169 13.0071 12.7237 13.0071C11.002 13.0071 9.28023 12.9936 7.55625 13.0071C6.93767 13.0116 6.37715 13.3232 6.12927 13.9106C5.99975 14.2222 6.01092 14.5338 6.01092 14.8611V18.0132C6.01092 19.3673 6.01092 20.7215 6.01092 22.0756C6.01092 23.4297 5.98635 23.5193 6.01092 24.239C6.03772 25.0707 6.66299 25.7007 7.49372 25.7254C7.63888 25.7299 7.78626 25.7254 7.93365 25.7254H10.3767C13.014 25.7254 15.6491 25.7254 18.2865 25.7254H24.5125C25.2316 25.7254 25.2316 24.6044 24.5125 24.6044H24.5102Z" fill="#0F0A54"/>
<path d="M25.4212 18.6407H6.56903L7.12731 19.2012V16.2441L6.56903 16.8046H25.4212L24.8629 16.2441V19.2012C24.8629 19.9231 25.9795 19.9231 25.9795 19.2012V16.2441C25.9795 15.9414 25.7227 15.6836 25.4212 15.6836H6.56903C6.26532 15.6836 6.01074 15.9414 6.01074 16.2441V19.2012C6.01074 19.5038 6.26755 19.7616 6.56903 19.7616H25.4212C26.1403 19.7616 26.1403 18.6407 25.4212 18.6407Z" fill="#0F0A54"/>
<path d="M18.6235 22.4945H22.7437C23.4627 22.4945 23.4627 21.3736 22.7437 21.3736H18.6235C17.9045 21.3736 17.9045 22.4945 18.6235 22.4945Z" fill="#0F0A54"/>
<path d="M13.7652 7.01951L13.7653 7.0194L13.7564 7.00925C13.4648 6.67877 13.0832 6.50006 12.6414 6.50006C12.1997 6.50006 11.8181 6.67877 11.5265 7.00925L11.5264 7.00913L11.5177 7.01951L8.78288 10.2933C8.57929 10.5233 8.47899 10.8074 8.50292 11.1184C8.52628 11.4221 8.66109 11.6871 8.8977 11.8813C9.12719 12.0831 9.41009 12.1824 9.7198 12.1586C10.0256 12.1351 10.2902 12 10.4931 11.7745L10.5018 11.7648L10.5101 11.7547L11.4414 10.6041V16.3201C11.4414 16.649 11.5748 16.9344 11.8076 17.1539C12.0271 17.3867 12.3125 17.5201 12.6414 17.5201C12.976 17.5201 13.266 17.3826 13.495 17.1536L13.1414 16.8001L13.495 17.1536C13.721 16.9276 13.8414 16.6408 13.8414 16.3201V10.6041L14.7728 11.7547L14.7811 11.7648L14.7898 11.7745C14.9927 12 15.2573 12.1351 15.5631 12.1586C15.8728 12.1824 16.1557 12.0831 16.3852 11.8813C16.6218 11.6871 16.7566 11.4221 16.78 11.1184C16.8039 10.8074 16.7036 10.5233 16.5 10.2933L13.7652 7.01951Z" fill="#0F0A54" stroke="white"/>
</svg>
