<svg width="13" height="15" viewBox="0 0 13 15" fill="none" xmlns="http://www.w3.org/2000/svg">
<g clip-path="url(#clip0_19_1085)">
<path d="M10.4422 14.2858H3.25022C1.83983 14.2858 0.692383 13.1429 0.692383 11.7382V2.54771C0.692383 1.14295 1.83983 9.15527e-05 3.25022 9.15527e-05H8.98744C9.07965 9.15527e-05 9.16502 0.0375065 9.22991 0.098731L12.8976 3.75179C12.9625 3.81642 12.9967 3.90145 12.9967 3.99329V11.7382C13.0001 13.1429 11.8526 14.2858 10.4422 14.2858ZM3.25022 0.680364C2.21548 0.680364 1.37538 1.5171 1.37538 2.54771V11.7416C1.37538 12.7722 2.21548 13.6089 3.25022 13.6089H10.4422C11.477 13.6089 12.3171 12.7722 12.3171 11.7416V4.13615L8.84743 0.680364H3.25022Z" fill="#0F0A54"/>
<path d="M12.6586 4.33342H10.0974C9.29827 4.33342 8.64941 3.68717 8.64941 2.89125V0.340228C8.64941 0.153153 8.80309 9.15527e-05 8.99091 9.15527e-05C9.17874 9.15527e-05 9.33242 0.153153 9.33242 0.340228V2.89125C9.33242 3.31302 9.67733 3.65315 10.0974 3.65315H12.6586C12.8465 3.65315 13.0001 3.80621 13.0001 3.99329C13.0001 4.18036 12.8465 4.33342 12.6586 4.33342Z" fill="#0F0A54"/>
<path d="M6.375 5.22118H3.62251C3.43468 5.22118 3.28101 5.06812 3.28101 4.88104C3.28101 4.69397 3.43468 4.54091 3.62251 4.54091H6.375C6.56283 4.54091 6.7165 4.69397 6.7165 4.88104C6.7165 5.06812 6.56624 5.22118 6.375 5.22118Z" fill="#52DAC6"/>
<path d="M8.22253 7.48308H3.62592C3.4381 7.48308 3.28442 7.33002 3.28442 7.14295C3.28442 6.95587 3.4381 6.80281 3.62592 6.80281H8.22253C8.41035 6.80281 8.56403 6.95587 8.56403 7.14295C8.56403 7.33002 8.41035 7.48308 8.22253 7.48308Z" fill="#52DAC6"/>
<path d="M10.0666 9.74498H3.62592C3.4381 9.74498 3.28442 9.59192 3.28442 9.40485C3.28442 9.21777 3.4381 9.06471 3.62592 9.06471H10.07C10.2579 9.06471 10.4115 9.21777 10.4115 9.40485C10.4115 9.59192 10.2579 9.74498 10.0666 9.74498Z" fill="#52DAC6"/>
</g>
<defs>
<clipPath id="clip0_19_1085">
<rect width="12.3077" height="14.2857" fill="white" transform="translate(0.692383 9.15527e-05)"/>
</clipPath>
</defs>
</svg>
