<svg width="131" height="78" viewBox="0 0 131 78" fill="none" xmlns="http://www.w3.org/2000/svg">
<path d="M12.501 8.48535V21H8.87012V8.48535H12.501ZM17.6465 13.4805V16.2734H11.4268V13.4805H17.6465ZM18.0762 8.48535V11.2783H11.4268V8.48535H18.0762ZM30.8701 14.5332V14.9629C30.8701 15.9154 30.7233 16.7747 30.4297 17.541C30.1361 18.3073 29.7207 18.9626 29.1836 19.5068C28.6465 20.0439 28.0127 20.4557 27.2822 20.7422C26.5518 21.0286 25.7497 21.1719 24.876 21.1719C23.988 21.1719 23.1751 21.0286 22.4375 20.7422C21.707 20.4557 21.0732 20.0439 20.5361 19.5068C19.999 18.9626 19.5837 18.3073 19.29 17.541C18.9964 16.7747 18.8496 15.9154 18.8496 14.9629V14.5332C18.8496 13.5736 18.9928 12.7142 19.2793 11.9551C19.5729 11.1888 19.9847 10.5335 20.5146 9.98926C21.0518 9.44499 21.6855 9.02962 22.416 8.74316C23.1536 8.45671 23.9665 8.31348 24.8545 8.31348C25.7282 8.31348 26.5303 8.45671 27.2607 8.74316C27.9912 9.02962 28.625 9.44499 29.1621 9.98926C29.7064 10.5335 30.1253 11.1888 30.4189 11.9551C30.7197 12.7142 30.8701 13.5736 30.8701 14.5332ZM27.2178 14.9629V14.5225C27.2178 13.971 27.1641 13.484 27.0566 13.0615C26.9492 12.6318 26.7917 12.2702 26.584 11.9766C26.3835 11.6829 26.1364 11.4609 25.8428 11.3105C25.5563 11.153 25.2269 11.0742 24.8545 11.0742C24.4606 11.0742 24.1133 11.153 23.8125 11.3105C23.5189 11.4609 23.2754 11.6829 23.082 11.9766C22.8887 12.2702 22.7419 12.6318 22.6416 13.0615C22.5485 13.484 22.502 13.971 22.502 14.5225V14.9629C22.502 15.5 22.5485 15.9834 22.6416 16.4131C22.7419 16.8356 22.8923 17.1973 23.0928 17.498C23.2933 17.7988 23.5404 18.028 23.834 18.1855C24.1348 18.3431 24.4821 18.4219 24.876 18.4219C25.2412 18.4219 25.5671 18.3431 25.8535 18.1855C26.1471 18.028 26.3942 17.7988 26.5947 17.498C26.7952 17.1973 26.9492 16.8356 27.0566 16.4131C27.1641 15.9834 27.2178 15.5 27.2178 14.9629ZM32.2666 8.48535H37.8096C38.583 8.48535 39.2884 8.56413 39.9258 8.72168C40.5632 8.87923 41.111 9.11556 41.5693 9.43066C42.0277 9.73861 42.3786 10.1253 42.6221 10.5908C42.8727 11.0563 42.998 11.597 42.998 12.2129C42.998 13.0007 42.8763 13.6416 42.6328 14.1357C42.3965 14.6299 42.0706 15.0273 41.6553 15.3281C41.2399 15.6289 40.7637 15.8903 40.2266 16.1123L38.9912 16.8535H34.4473L34.4258 14.0605H37.8096C38.1533 14.0605 38.4398 14.0104 38.6689 13.9102C38.9053 13.8027 39.0807 13.6452 39.1953 13.4375C39.3099 13.2227 39.3672 12.9577 39.3672 12.6426C39.3672 12.3418 39.3027 12.0911 39.1738 11.8906C39.0449 11.6901 38.8623 11.5397 38.626 11.4395C38.3968 11.332 38.1247 11.2783 37.8096 11.2783H35.8975V21H32.2666V8.48535ZM39.5068 21L36.6172 15.5L40.4736 15.4678L43.417 20.8604V21H39.5068ZM54.7715 14.9736L57.6826 8.48535H61.5713L57.0166 17.0039H55.126L54.7715 14.9736ZM53.2354 8.48535L56.168 15.0488L55.7705 17.0039H53.8906L49.3467 8.48535H53.2354ZM57.2422 15.0811V21H53.6006V15.0811H57.2422ZM74.0107 14.5332V14.9629C74.0107 15.9154 73.8639 16.7747 73.5703 17.541C73.2767 18.3073 72.8613 18.9626 72.3242 19.5068C71.7871 20.0439 71.1533 20.4557 70.4229 20.7422C69.6924 21.0286 68.8903 21.1719 68.0166 21.1719C67.1286 21.1719 66.3158 21.0286 65.5781 20.7422C64.8477 20.4557 64.2139 20.0439 63.6768 19.5068C63.1396 18.9626 62.7243 18.3073 62.4307 17.541C62.137 16.7747 61.9902 15.9154 61.9902 14.9629V14.5332C61.9902 13.5736 62.1335 12.7142 62.4199 11.9551C62.7135 11.1888 63.1253 10.5335 63.6553 9.98926C64.1924 9.44499 64.8262 9.02962 65.5566 8.74316C66.2943 8.45671 67.1071 8.31348 67.9951 8.31348C68.8688 8.31348 69.6709 8.45671 70.4014 8.74316C71.1318 9.02962 71.7656 9.44499 72.3027 9.98926C72.847 10.5335 73.266 11.1888 73.5596 11.9551C73.8604 12.7142 74.0107 13.5736 74.0107 14.5332ZM70.3584 14.9629V14.5225C70.3584 13.971 70.3047 13.484 70.1973 13.0615C70.0898 12.6318 69.9323 12.2702 69.7246 11.9766C69.5241 11.6829 69.277 11.4609 68.9834 11.3105C68.6969 11.153 68.3675 11.0742 67.9951 11.0742C67.6012 11.0742 67.2539 11.153 66.9531 11.3105C66.6595 11.4609 66.416 11.6829 66.2227 11.9766C66.0293 12.2702 65.8825 12.6318 65.7822 13.0615C65.6891 13.484 65.6426 13.971 65.6426 14.5225V14.9629C65.6426 15.5 65.6891 15.9834 65.7822 16.4131C65.8825 16.8356 66.0329 17.1973 66.2334 17.498C66.4339 17.7988 66.681 18.028 66.9746 18.1855C67.2754 18.3431 67.6227 18.4219 68.0166 18.4219C68.3818 18.4219 68.7077 18.3431 68.9941 18.1855C69.2878 18.028 69.5348 17.7988 69.7354 17.498C69.9359 17.1973 70.0898 16.8356 70.1973 16.4131C70.3047 15.9834 70.3584 15.5 70.3584 14.9629ZM82.6367 8.48535H86.2676V16.5098C86.2676 17.5052 86.0492 18.3503 85.6123 19.0449C85.1826 19.7396 84.5667 20.2695 83.7646 20.6348C82.9626 20.9928 81.9993 21.1719 80.875 21.1719C79.7865 21.1719 78.834 20.9928 78.0176 20.6348C77.2012 20.2695 76.5674 19.7396 76.1162 19.0449C75.665 18.3503 75.4395 17.5052 75.4395 16.5098V8.48535H79.0811V16.5098C79.0811 16.9538 79.1455 17.3154 79.2744 17.5947C79.4105 17.874 79.611 18.0781 79.876 18.207C80.1481 18.3288 80.4811 18.3896 80.875 18.3896C81.276 18.3896 81.6055 18.3288 81.8633 18.207C82.1211 18.0781 82.3145 17.874 82.4434 17.5947C82.5723 17.3154 82.6367 16.9538 82.6367 16.5098V8.48535Z" fill="#0F0A54"/>
<path d="M53.4023 38.4492L50.5127 47H46.8604L51.7158 34.4854H54.2295L53.4023 38.4492ZM56.4961 47L53.499 38.4707L52.6504 34.4854H55.207L60.1377 47H56.4961ZM56.5391 42.3379V44.8086H49.8682V42.3379H56.5391ZM72.373 34.4854V47H68.7422L64.5205 39.7168V47H60.8896V34.4854H64.5205L68.7422 41.7686V34.4854H72.373ZM78.582 40.9736L81.4932 34.4854H85.3818L80.8271 43.0039H78.9365L78.582 40.9736ZM77.0459 34.4854L79.9785 41.0488L79.5811 43.0039H77.7012L73.1572 34.4854H77.0459ZM81.0527 41.0811V47H77.4111V41.0811H81.0527ZM93.1055 34.4854V47H89.4531V34.4854H93.1055ZM97.0801 34.4854V37.2783H85.5967V34.4854H97.0801ZM102.15 34.4854V47H98.5195V34.4854H102.15ZM106.061 34.4854H108.939L111.55 42.4668L114.16 34.4854H117.039L112.721 47H110.379L106.061 34.4854ZM104.138 34.4854H107.199L107.79 45.0664V47H104.138V34.4854ZM115.911 34.4854H118.983V47H115.342V45.0664L115.911 34.4854ZM130.209 44.2178V47H122.99V44.2178H130.209ZM124.376 34.4854V47H120.745V34.4854H124.376ZM129.296 39.1367V41.9297H122.99V39.1367H129.296ZM130.263 34.4854V37.2783H122.99V34.4854H130.263Z" fill="#0F0A54"/>
<path d="M7.40234 64.4492L4.5127 73H0.860352L5.71582 60.4854H8.22949L7.40234 64.4492ZM10.4961 73L7.49902 64.4707L6.65039 60.4854H9.20703L14.1377 73H10.4961ZM10.5391 68.3379V70.8086H3.86816V68.3379H10.5391ZM26.373 60.4854V73H22.7422L18.5205 65.7168V73H14.8896V60.4854H18.5205L22.7422 67.7686V60.4854H26.373ZM32.582 66.9736L35.4932 60.4854H39.3818L34.8271 69.0039H32.9365L32.582 66.9736ZM31.0459 60.4854L33.9785 67.0488L33.5811 69.0039H31.7012L27.1572 60.4854H31.0459ZM35.0527 67.0811V73H31.4111V67.0811H35.0527ZM43.3135 72.291L45.7949 60.4854H47.4814L48.4482 61.6562L45.9775 73H44.1084L43.3135 72.291ZM42.9912 60.4854L45.0752 72.291L44.377 73H42.2822L39.5215 60.4854H42.9912ZM49.7373 72.291L51.832 60.4854H55.2803L52.541 73H50.4678L49.7373 72.291ZM48.9746 60.4854L51.5312 72.291L50.7256 73H48.8564L46.2568 61.6562L47.2666 60.4854H48.9746ZM65.7002 65.4805V68.2734H58.8467V65.4805H65.7002ZM60.1572 60.4854V73H56.5264V60.4854H60.1572ZM68.0205 60.4854V73H64.4111V60.4854H68.0205ZM79.2246 70.2178V73H72.0059V70.2178H79.2246ZM73.3916 60.4854V73H69.7607V60.4854H73.3916ZM78.3115 65.1367V67.9297H72.0059V65.1367H78.3115ZM79.2783 60.4854V63.2783H72.0059V60.4854H79.2783ZM80.3096 60.4854H85.8525C86.626 60.4854 87.3314 60.5641 87.9688 60.7217C88.6061 60.8792 89.154 61.1156 89.6123 61.4307C90.0706 61.7386 90.4215 62.1253 90.665 62.5908C90.9157 63.0563 91.041 63.597 91.041 64.2129C91.041 65.0007 90.9193 65.6416 90.6758 66.1357C90.4395 66.6299 90.1136 67.0273 89.6982 67.3281C89.2829 67.6289 88.8066 67.8903 88.2695 68.1123L87.0342 68.8535H82.4902L82.4688 66.0605H85.8525C86.1963 66.0605 86.4827 66.0104 86.7119 65.9102C86.9482 65.8027 87.1237 65.6452 87.2383 65.4375C87.3529 65.2227 87.4102 64.9577 87.4102 64.6426C87.4102 64.3418 87.3457 64.0911 87.2168 63.8906C87.0879 63.6901 86.9053 63.5397 86.6689 63.4395C86.4398 63.332 86.1676 63.2783 85.8525 63.2783H83.9404V73H80.3096V60.4854ZM87.5498 73L84.6602 67.5L88.5166 67.4678L91.46 72.8604V73H87.5498ZM102.342 70.2178V73H95.123V70.2178H102.342ZM96.5088 60.4854V73H92.8779V60.4854H96.5088ZM101.429 65.1367V67.9297H95.123V65.1367H101.429ZM102.396 60.4854V63.2783H95.123V60.4854H102.396Z" fill="#0F0A54"/>
</svg>
