<svg width="200" height="44" viewBox="0 0 200 44" fill="none" xmlns="http://www.w3.org/2000/svg">
<path d="M34.0294 34.5284V0.177483H41.628V26.9693C41.628 31.136 38.2421 34.5219 34.0754 34.5219H34.036L34.0294 34.5284Z" fill="#52DAC6"/>
<path d="M128.408 34.5284C128.408 34.5284 128.46 34.5284 128.486 34.5284C132.653 34.5284 136.032 31.1491 136.032 26.9824V23.1437L150.239 0.17749H141.308L132.24 14.8365L123.171 0.17749H114.241C118.972 7.82853 123.709 15.4861 128.44 23.1372L128.486 34.5219" fill="#52DAC6"/>
<path d="M62.337 0.000331412C52.8092 -0.0587247 45.1057 7.78261 45.1057 17.3103V43.8528C49.3643 43.8528 52.8158 40.4013 52.8158 36.1427V31.4379C55.5127 33.2161 58.7477 34.2529 62.2254 34.2529C71.7138 34.2529 79.4566 26.4181 79.3451 16.9297C79.2401 7.59232 71.6744 0.0593875 62.337 0.000331412ZM62.5338 26.5231C57.0941 26.7002 52.6452 22.2514 52.8224 16.8116C52.9798 11.8903 56.9891 7.87448 61.917 7.71699C67.3567 7.53983 71.8056 11.9822 71.6285 17.4219C71.471 22.3498 67.4617 26.359 62.5338 26.5165V26.5231Z" fill="#52DAC6"/>
<path d="M100.271 0.000331412C90.7429 -0.0587247 83.0394 7.78261 83.0394 17.3103V43.8528C87.298 43.8528 90.7495 40.4013 90.7495 36.1427V31.4379C93.4464 33.2161 96.6813 34.2529 100.159 34.2529C109.647 34.2529 117.39 26.4181 117.279 16.9297C117.174 7.59232 109.608 0.0593875 100.271 0.000331412ZM100.467 26.5231C95.0278 26.7002 90.5789 22.2514 90.756 16.8116C90.9135 11.8903 94.9228 7.87448 99.8507 7.71699C105.29 7.53983 109.739 11.9822 109.562 17.4219C109.405 22.3498 105.395 26.359 100.467 26.5165V26.5231Z" fill="#52DAC6"/>
<path d="M199.99 7.028C199.905 5.74189 199.4 4.46234 198.684 3.39933C197.917 2.26415 196.834 1.35862 195.594 0.781182C194.235 0.15125 192.871 0.0856323 191.407 0.0856323C190.423 0.0856323 189.439 0.0856323 188.454 0.0856323H158.539C155.094 0.0856323 152.187 2.39538 151.295 5.5516L151.039 6.92302C150.987 7.19205 150.941 7.46108 150.888 7.73011L147.371 26.6149C146.899 29.2987 146.433 31.9759 145.96 34.6597C149.53 31.9759 153.106 29.2987 156.676 26.6149H190.154C193.789 26.6149 196.827 24.0362 197.529 20.6043C198.225 17.0347 198.921 13.4717 199.61 9.90207C199.76 9.15402 199.951 8.38629 199.99 7.61856C200.003 7.42171 200.003 7.23142 199.99 7.03457V7.028ZM158.29 15.5452L157.273 21.3524H153.959L156.82 4.8823L162.588 4.89542C164.366 4.89542 165.764 5.38756 166.787 6.37839C167.805 7.36922 168.251 8.65533 168.119 10.2433C167.995 11.8575 167.326 13.1502 166.098 14.1147C164.871 15.0793 163.31 15.5583 161.407 15.5583L158.283 15.5452H158.29ZM176.755 21.3524L176.236 17.9599H170.488L168.789 21.3524H165.134L173.933 4.8823H176.998L180.134 21.3524H176.748H176.755ZM188.304 15.5583L187.306 21.3524H183.933L185.01 15.1843L181.591 4.88886L185.088 4.87574L187.09 12.2774L191.696 4.87574H195.502L188.304 15.5518V15.5583Z" fill="#0F0A54"/>
<path d="M158.723 12.7959L161.486 12.8156C162.378 12.8156 163.113 12.5859 163.703 12.1266C164.294 11.6672 164.642 11.0439 164.753 10.263C164.865 9.47561 164.74 8.85224 164.373 8.38635C164.005 7.92046 163.467 7.67112 162.752 7.63831L159.629 7.62518L158.723 12.7959Z" fill="#0F0A54"/>
<path d="M171.814 15.204H175.784L174.858 9.07526L171.814 15.204Z" fill="#0F0A54"/>
<path d="M30.0858 7.63816C29.8168 8.24185 29.4362 8.78648 28.9769 9.25236L28.99 9.26549L11.1944 26.5296H22.5004C23.9833 26.5296 25.3613 26.9429 26.5359 27.6647C28.465 28.8393 29.8299 30.8341 30.1645 33.1635C30.217 33.5047 30.2433 33.8525 30.2433 34.2134H5.68251C4.9804 34.2003 4.3111 34.0559 3.70086 33.8066C1.73888 32.9929 0.36091 31.0572 0.36091 28.7999C0.36091 27.9928 0.538079 27.2251 0.853044 26.5361C1.06958 26.0571 1.35829 25.624 1.6995 25.2303L2.36225 24.5873L19.8297 7.64473H6.87019C3.29402 7.2707 0.446202 4.46882 0 0.912333V0.000244141H25.1513C25.8994 0.000244141 26.6081 0.151165 27.2642 0.42676C28.8719 1.10919 30.0792 2.53309 30.4533 4.27197C30.532 4.63943 30.5779 5.02657 30.5779 5.42028C30.5779 5.81399 30.5386 6.20113 30.4533 6.56859C30.3745 6.94262 30.2564 7.29695 30.0989 7.63816H30.0858Z" fill="#52DAC6"/>
</svg>
