<svg width="375" height="812" viewBox="0 0 375 812" fill="none" xmlns="http://www.w3.org/2000/svg">
<rect width="375" height="812" fill="white"/>
<path d="M122.029 396.528V362.177H129.628V388.969C129.628 393.136 126.242 396.522 122.075 396.522H122.036L122.029 396.528Z" fill="#52DAC6"/>
<path d="M216.408 396.528C216.408 396.528 216.46 396.528 216.486 396.528C220.653 396.528 224.032 393.149 224.032 388.982V385.144L238.239 362.178H229.308L220.24 376.837L211.171 362.178H202.241C206.972 369.829 211.709 377.486 216.44 385.137L216.486 396.522" fill="#52DAC6"/>
<path d="M150.337 362C140.809 361.941 133.106 369.783 133.106 379.31V405.853C137.364 405.853 140.816 402.401 140.816 398.143V393.438C143.513 395.216 146.748 396.253 150.225 396.253C159.714 396.253 167.457 388.418 167.345 378.93C167.24 369.592 159.674 362.059 150.337 362ZM150.534 388.523C145.094 388.7 140.645 384.251 140.822 378.812C140.98 373.89 144.989 369.874 149.917 369.717C155.357 369.54 159.806 373.982 159.628 379.422C159.471 384.35 155.462 388.359 150.534 388.517V388.523Z" fill="#52DAC6"/>
<path d="M188.271 362C178.743 361.941 171.039 369.783 171.039 379.31V405.853C175.298 405.853 178.749 402.401 178.749 398.143V393.438C181.446 395.216 184.681 396.253 188.159 396.253C197.647 396.253 205.39 388.418 205.279 378.93C205.174 369.592 197.608 362.059 188.271 362ZM188.467 388.523C183.028 388.7 178.579 384.251 178.756 378.812C178.913 373.89 182.923 369.874 187.851 369.717C193.29 369.54 197.739 373.982 197.562 379.422C197.405 384.35 193.395 388.359 188.467 388.517V388.523Z" fill="#52DAC6"/>
<path d="M287.99 369.028C287.905 367.742 287.4 366.462 286.684 365.399C285.917 364.264 284.834 363.359 283.594 362.781C282.235 362.151 280.871 362.086 279.407 362.086C278.423 362.086 277.439 362.086 276.454 362.086H246.539C243.094 362.086 240.187 364.395 239.295 367.552L239.039 368.923C238.987 369.192 238.941 369.461 238.888 369.73L235.371 388.615C234.899 391.299 234.433 393.976 233.96 396.66C237.53 393.976 241.106 391.299 244.676 388.615H278.154C281.789 388.615 284.827 386.036 285.529 382.604C286.225 379.035 286.921 375.472 287.61 371.902C287.76 371.154 287.951 370.386 287.99 369.619C288.003 369.422 288.003 369.231 287.99 369.035V369.028ZM246.29 377.545L245.273 383.352H241.959L244.82 366.882L250.588 366.895C252.366 366.895 253.764 367.388 254.787 368.378C255.805 369.369 256.251 370.655 256.119 372.243C255.995 373.857 255.326 375.15 254.098 376.115C252.871 377.079 251.31 377.558 249.407 377.558L246.283 377.545H246.29ZM264.755 383.352L264.236 379.96H258.488L256.789 383.352H253.134L261.933 366.882H264.998L268.134 383.352H264.748H264.755ZM276.304 377.558L275.306 383.352H271.933L273.01 377.184L269.591 366.889L273.088 366.876L275.09 374.277L279.696 366.876H283.502L276.304 377.552V377.558Z" fill="#0F0A54"/>
<path d="M246.723 374.796L249.486 374.816C250.378 374.816 251.113 374.586 251.703 374.127C252.294 373.667 252.642 373.044 252.753 372.263C252.865 371.476 252.74 370.852 252.373 370.386C252.005 369.92 251.467 369.671 250.752 369.638L247.629 369.625L246.723 374.796Z" fill="#0F0A54"/>
<path d="M259.814 377.204H263.784L262.858 371.075L259.814 377.204Z" fill="#0F0A54"/>
<path d="M118.086 369.638C117.817 370.242 117.436 370.786 116.977 371.252L116.99 371.265L99.1944 388.53H110.5C111.983 388.53 113.361 388.943 114.536 389.665C116.465 390.839 117.83 392.834 118.165 395.164C118.217 395.505 118.243 395.853 118.243 396.213H93.6825C92.9804 396.2 92.3111 396.056 91.7009 395.807C89.7389 394.993 88.3609 393.057 88.3609 390.8C88.3609 389.993 88.5381 389.225 88.853 388.536C89.0696 388.057 89.3583 387.624 89.6995 387.23L90.3622 386.587L107.83 369.645H94.8702C91.294 369.271 88.4462 366.469 88 362.912V362H113.151C113.899 362 114.608 362.151 115.264 362.427C116.872 363.109 118.079 364.533 118.453 366.272C118.532 366.639 118.578 367.027 118.578 367.42C118.578 367.814 118.539 368.201 118.453 368.569C118.375 368.943 118.256 369.297 118.099 369.638H118.086Z" fill="#52DAC6"/>
<path d="M134.501 461.485V474H130.87V461.485H134.501ZM139.646 466.48V469.273H133.427V466.48H139.646ZM140.076 461.485V464.278H133.427V461.485H140.076ZM152.87 467.533V467.963C152.87 468.915 152.723 469.775 152.43 470.541C152.136 471.307 151.721 471.963 151.184 472.507C150.646 473.044 150.013 473.456 149.282 473.742C148.552 474.029 147.75 474.172 146.876 474.172C145.988 474.172 145.175 474.029 144.438 473.742C143.707 473.456 143.073 473.044 142.536 472.507C141.999 471.963 141.584 471.307 141.29 470.541C140.996 469.775 140.85 468.915 140.85 467.963V467.533C140.85 466.574 140.993 465.714 141.279 464.955C141.573 464.189 141.985 463.534 142.515 462.989C143.052 462.445 143.686 462.03 144.416 461.743C145.154 461.457 145.966 461.313 146.854 461.313C147.728 461.313 148.53 461.457 149.261 461.743C149.991 462.03 150.625 462.445 151.162 462.989C151.706 463.534 152.125 464.189 152.419 464.955C152.72 465.714 152.87 466.574 152.87 467.533ZM149.218 467.963V467.522C149.218 466.971 149.164 466.484 149.057 466.062C148.949 465.632 148.792 465.27 148.584 464.977C148.383 464.683 148.136 464.461 147.843 464.311C147.556 464.153 147.227 464.074 146.854 464.074C146.461 464.074 146.113 464.153 145.812 464.311C145.519 464.461 145.275 464.683 145.082 464.977C144.889 465.27 144.742 465.632 144.642 466.062C144.549 466.484 144.502 466.971 144.502 467.522V467.963C144.502 468.5 144.549 468.983 144.642 469.413C144.742 469.836 144.892 470.197 145.093 470.498C145.293 470.799 145.54 471.028 145.834 471.186C146.135 471.343 146.482 471.422 146.876 471.422C147.241 471.422 147.567 471.343 147.854 471.186C148.147 471.028 148.394 470.799 148.595 470.498C148.795 470.197 148.949 469.836 149.057 469.413C149.164 468.983 149.218 468.5 149.218 467.963ZM154.267 461.485H159.81C160.583 461.485 161.288 461.564 161.926 461.722C162.563 461.879 163.111 462.116 163.569 462.431C164.028 462.739 164.379 463.125 164.622 463.591C164.873 464.056 164.998 464.597 164.998 465.213C164.998 466.001 164.876 466.642 164.633 467.136C164.396 467.63 164.071 468.027 163.655 468.328C163.24 468.629 162.764 468.89 162.227 469.112L160.991 469.854H156.447L156.426 467.061H159.81C160.153 467.061 160.44 467.01 160.669 466.91C160.905 466.803 161.081 466.645 161.195 466.438C161.31 466.223 161.367 465.958 161.367 465.643C161.367 465.342 161.303 465.091 161.174 464.891C161.045 464.69 160.862 464.54 160.626 464.439C160.397 464.332 160.125 464.278 159.81 464.278H157.897V474H154.267V461.485ZM161.507 474L158.617 468.5L162.474 468.468L165.417 473.86V474H161.507ZM176.771 467.974L179.683 461.485H183.571L179.017 470.004H177.126L176.771 467.974ZM175.235 461.485L178.168 468.049L177.771 470.004H175.891L171.347 461.485H175.235ZM179.242 468.081V474H175.601V468.081H179.242ZM196.011 467.533V467.963C196.011 468.915 195.864 469.775 195.57 470.541C195.277 471.307 194.861 471.963 194.324 472.507C193.787 473.044 193.153 473.456 192.423 473.742C191.692 474.029 190.89 474.172 190.017 474.172C189.129 474.172 188.316 474.029 187.578 473.742C186.848 473.456 186.214 473.044 185.677 472.507C185.14 471.963 184.724 471.307 184.431 470.541C184.137 469.775 183.99 468.915 183.99 467.963V467.533C183.99 466.574 184.133 465.714 184.42 464.955C184.714 464.189 185.125 463.534 185.655 462.989C186.192 462.445 186.826 462.03 187.557 461.743C188.294 461.457 189.107 461.313 189.995 461.313C190.869 461.313 191.671 461.457 192.401 461.743C193.132 462.03 193.766 462.445 194.303 462.989C194.847 463.534 195.266 464.189 195.56 464.955C195.86 465.714 196.011 466.574 196.011 467.533ZM192.358 467.963V467.522C192.358 466.971 192.305 466.484 192.197 466.062C192.09 465.632 191.932 465.27 191.725 464.977C191.524 464.683 191.277 464.461 190.983 464.311C190.697 464.153 190.368 464.074 189.995 464.074C189.601 464.074 189.254 464.153 188.953 464.311C188.66 464.461 188.416 464.683 188.223 464.977C188.029 465.27 187.882 465.632 187.782 466.062C187.689 466.484 187.643 466.971 187.643 467.522V467.963C187.643 468.5 187.689 468.983 187.782 469.413C187.882 469.836 188.033 470.197 188.233 470.498C188.434 470.799 188.681 471.028 188.975 471.186C189.275 471.343 189.623 471.422 190.017 471.422C190.382 471.422 190.708 471.343 190.994 471.186C191.288 471.028 191.535 470.799 191.735 470.498C191.936 470.197 192.09 469.836 192.197 469.413C192.305 468.983 192.358 468.5 192.358 467.963ZM204.637 461.485H208.268V469.51C208.268 470.505 208.049 471.35 207.612 472.045C207.183 472.74 206.567 473.27 205.765 473.635C204.963 473.993 203.999 474.172 202.875 474.172C201.786 474.172 200.834 473.993 200.018 473.635C199.201 473.27 198.567 472.74 198.116 472.045C197.665 471.35 197.439 470.505 197.439 469.51V461.485H201.081V469.51C201.081 469.954 201.146 470.315 201.274 470.595C201.41 470.874 201.611 471.078 201.876 471.207C202.148 471.329 202.481 471.39 202.875 471.39C203.276 471.39 203.605 471.329 203.863 471.207C204.121 471.078 204.314 470.874 204.443 470.595C204.572 470.315 204.637 469.954 204.637 469.51V461.485Z" fill="#0F0A54"/>
<path d="M175.402 491.449L172.513 500H168.86L173.716 487.485H176.229L175.402 491.449ZM178.496 500L175.499 491.471L174.65 487.485H177.207L182.138 500H178.496ZM178.539 495.338V497.809H171.868V495.338H178.539ZM194.373 487.485V500H190.742L186.521 492.717V500H182.89V487.485H186.521L190.742 494.769V487.485H194.373ZM200.582 493.974L203.493 487.485H207.382L202.827 496.004H200.937L200.582 493.974ZM199.046 487.485L201.979 494.049L201.581 496.004H199.701L195.157 487.485H199.046ZM203.053 494.081V500H199.411V494.081H203.053ZM215.105 487.485V500H211.453V487.485H215.105ZM219.08 487.485V490.278H207.597V487.485H219.08ZM224.15 487.485V500H220.52V487.485H224.15ZM228.061 487.485H230.939L233.55 495.467L236.16 487.485H239.039L234.721 500H232.379L228.061 487.485ZM226.138 487.485H229.199L229.79 498.066V500H226.138V487.485ZM237.911 487.485H240.983V500H237.342V498.066L237.911 487.485ZM252.209 497.218V500H244.99V497.218H252.209ZM246.376 487.485V500H242.745V487.485H246.376ZM251.296 492.137V494.93H244.99V492.137H251.296ZM252.263 487.485V490.278H244.99V487.485H252.263Z" fill="#0F0A54"/>
<path d="M129.402 517.449L126.513 526H122.86L127.716 513.485H130.229L129.402 517.449ZM132.496 526L129.499 517.471L128.65 513.485H131.207L136.138 526H132.496ZM132.539 521.338V523.809H125.868V521.338H132.539ZM148.373 513.485V526H144.742L140.521 518.717V526H136.89V513.485H140.521L144.742 520.769V513.485H148.373ZM154.582 519.974L157.493 513.485H161.382L156.827 522.004H154.937L154.582 519.974ZM153.046 513.485L155.979 520.049L155.581 522.004H153.701L149.157 513.485H153.046ZM157.053 520.081V526H153.411V520.081H157.053ZM165.313 525.291L167.795 513.485H169.481L170.448 514.656L167.978 526H166.108L165.313 525.291ZM164.991 513.485L167.075 525.291L166.377 526H164.282L161.521 513.485H164.991ZM171.737 525.291L173.832 513.485H177.28L174.541 526H172.468L171.737 525.291ZM170.975 513.485L173.531 525.291L172.726 526H170.856L168.257 514.656L169.267 513.485H170.975ZM187.7 518.48V521.273H180.847V518.48H187.7ZM182.157 513.485V526H178.526V513.485H182.157ZM190.021 513.485V526H186.411V513.485H190.021ZM201.225 523.218V526H194.006V523.218H201.225ZM195.392 513.485V526H191.761V513.485H195.392ZM200.312 518.137V520.93H194.006V518.137H200.312ZM201.278 513.485V516.278H194.006V513.485H201.278ZM202.31 513.485H207.853C208.626 513.485 209.331 513.564 209.969 513.722C210.606 513.879 211.154 514.116 211.612 514.431C212.071 514.739 212.422 515.125 212.665 515.591C212.916 516.056 213.041 516.597 213.041 517.213C213.041 518.001 212.919 518.642 212.676 519.136C212.439 519.63 212.114 520.027 211.698 520.328C211.283 520.629 210.807 520.89 210.27 521.112L209.034 521.854H204.49L204.469 519.061H207.853C208.196 519.061 208.483 519.01 208.712 518.91C208.948 518.803 209.124 518.645 209.238 518.438C209.353 518.223 209.41 517.958 209.41 517.643C209.41 517.342 209.346 517.091 209.217 516.891C209.088 516.69 208.905 516.54 208.669 516.439C208.44 516.332 208.168 516.278 207.853 516.278H205.94V526H202.31V513.485ZM209.55 526L206.66 520.5L210.517 520.468L213.46 525.86V526H209.55ZM224.342 523.218V526H217.123V523.218H224.342ZM218.509 513.485V526H214.878V513.485H218.509ZM223.429 518.137V520.93H217.123V518.137H223.429ZM224.396 513.485V516.278H217.123V513.485H224.396Z" fill="#0F0A54"/>
</svg>
